G04 DipTrace 2.4.0.2*
%INBottomMask.gbr*%
%MOIN*%
%ADD31C,0.0472*%
%ADD32R,0.0472X0.0472*%
%ADD37C,0.0354*%
%ADD38C,0.1181*%
%ADD39C,0.0335*%
%ADD42C,0.063*%
%ADD48R,0.1024X0.0827*%
%ADD50R,0.0945X0.0236*%
%FSLAX44Y44*%
G04*
G70*
G90*
G75*
G01*
%LNBotMask*%
%LPD*%
D50*
X16201Y30157D3*
Y29843D3*
Y29528D3*
Y29213D3*
Y28898D3*
D48*
X16240Y31280D3*
Y27776D3*
X18406Y31280D3*
Y27776D3*
D37*
X17224Y30394D3*
Y28661D3*
G36*
X2520Y28937D2*
Y29331D1*
X4331D1*
Y28937D1*
X2520D1*
G37*
G36*
Y29724D2*
Y30118D1*
X4331D1*
Y29724D1*
X2520D1*
G37*
G36*
X709Y31181D2*
X2047D1*
Y30551D1*
X709D1*
Y31181D1*
G37*
G36*
Y28504D2*
X2047D1*
Y27874D1*
X709D1*
Y28504D1*
G37*
D38*
X9843Y33661D3*
D31*
X7299Y33260D3*
D32*
Y34260D3*
D31*
X6299Y33260D3*
Y34260D3*
X5299Y33260D3*
Y34260D3*
D42*
X3343Y1543D3*
X4343D3*
X5343D3*
X6343D3*
X7343D3*
X8343D3*
X9343D3*
X10343D3*
X11343D3*
X12343D3*
X13343D3*
X14343D3*
X15343D3*
X16343D3*
X18343Y2543D3*
X17343D3*
X16343D3*
X15343D3*
X14343D3*
X13343D3*
X12343D3*
X11343D3*
X10343D3*
X9343D3*
X8343D3*
X7343D3*
X6343D3*
X5343D3*
X4343D3*
X3343D3*
X2343D3*
X1343D3*
Y3543D3*
X2343D3*
X3343D3*
X4343D3*
X5343D3*
X6343D3*
X7343D3*
X8343D3*
X9343D3*
X10343D3*
X11343D3*
X12343D3*
X13343D3*
X14343D3*
X15343D3*
X16343D3*
X17343D3*
X18343D3*
Y4543D3*
X17343D3*
X16343D3*
X15343D3*
X14343D3*
X13343D3*
X12343D3*
X11343D3*
X10343D3*
X9343D3*
X8343D3*
X7343D3*
X6343D3*
X5343D3*
X4343D3*
X3343D3*
X2343D3*
X1343D3*
Y5543D3*
X2343D3*
X3343D3*
X4343D3*
X5343D3*
X6343D3*
X7343D3*
X8343D3*
X9343D3*
X10343D3*
X11343D3*
X12343D3*
X13343D3*
X14343D3*
X15343D3*
X16343D3*
X17343D3*
X18343D3*
G36*
X3504Y23819D2*
Y23425D1*
X3051D1*
Y23819D1*
X3504D1*
G37*
G36*
Y24803D2*
Y24409D1*
X3051D1*
Y24803D1*
X3504D1*
G37*
G36*
Y25787D2*
Y25394D1*
X3051D1*
Y25787D1*
X3504D1*
G37*
G36*
X1280Y23819D2*
Y23425D1*
X827D1*
Y23819D1*
X1280D1*
G37*
G36*
Y24803D2*
Y24409D1*
X827D1*
Y24803D1*
X1280D1*
G37*
G36*
Y25787D2*
Y25394D1*
X827D1*
Y25787D1*
X1280D1*
G37*
D39*
X2165Y25197D3*
Y24016D3*
M02*
