M48
INCH
T01C0.0157
T02C0.0236
T03C0.0335
T04C0.0354
T05C0.1181
%
T01
X+001772Y+029528
X+001280Y+028839
X+002559Y+027657
X+003346Y+028543
X+002264Y+030315
X+002461Y+031594
X+004921Y+032087
X+005315Y+031299
X+006004Y+032579
X+007382Y+031102
X+007776Y+029626
X+007480Y+029331
X+007185Y+028445
X+007480Y+028150
X+007776Y+027854
X+008071Y+027559
X+008661Y+026969
X+008957Y+026673
X+009547Y+026083
X+009843Y+025787
X+010138Y+026083
X+010433Y+026378
X+010728Y+026673
X+011319Y+027264
X+011614Y+027559
X+011909Y+027854
X+012205Y+028150
X+012500Y+028445
X+012795Y+028740
X+012500Y+029035
X+011909Y+029626
X+011614Y+029921
X+011319Y+030217
X+011024Y+030512
X+010728Y+030807
X+010630Y+031693
X+009843Y+031693
X+009154Y+031693
X+009252Y+031102
X+008957Y+030807
X+009252Y+029331
X+009843Y+029331
X+010433Y+029331
X+010433Y+028740
X+010433Y+028150
X+009843Y+028150
X+009252Y+028150
X+009252Y+028740
X+006102Y+028839
X+006004Y+026476
X+005512Y+025394
X+005118Y+024902
X+006201Y+024213
X+007283Y+023130
X+007677Y+023130
X+008071Y+023130
X+008465Y+023130
X+008465Y+021752
X+008071Y+021752
X+007677Y+021752
X+007283Y+021752
X+005709Y+020669
X+004528Y+021752
X+004134Y+021752
X+004134Y+023130
X+004528Y+023130
X+002264Y+024606
X+001870Y+024606
X+004823Y+026181
X+009843Y+024606
X+011220Y+023130
X+011614Y+023130
X+012008Y+023130
X+012402Y+023130
X+012402Y+021752
X+012008Y+021752
X+011614Y+021752
X+011220Y+021752
X+009646Y+020669
X+008858Y+018996
X+010827Y+018996
X+012795Y+018996
X+013583Y+020669
X+015157Y+021752
X+015551Y+021752
X+015945Y+021752
X+016339Y+021752
X+016339Y+023130
X+015945Y+023130
X+015551Y+023130
X+015157Y+023130
X+013976Y+024606
X+013583Y+024606
X+014665Y+027067
X+016240Y+027165
X+017224Y+027953
X+018406Y+028642
X+018406Y+027165
X+018602Y+024606
X+017913Y+024606
X+017520Y+024606
X+017520Y+020866
X+017520Y+020472
X+018602Y+020669
X+018602Y+019587
X+016732Y+018996
X+014764Y+018996
X+013583Y+016732
X+012795Y+015059
X+014764Y+015059
X+016732Y+015059
X+017520Y+016339
X+017520Y+016732
X+018602Y+016732
X+018602Y+012795
X+017520Y+012795
X+017520Y+012402
X+016732Y+011122
X+014764Y+011122
X+012795Y+011122
X+013583Y+012795
X+010827Y+011122
X+008858Y+011122
X+009646Y+012795
X+008858Y+015059
X+009646Y+016732
X+010827Y+015059
X+006890Y+015059
X+005709Y+016732
X+004724Y+015059
X+003346Y+015059
X+001772Y+016339
X+001772Y+016732
X+001083Y+016732
X+003346Y+018996
X+004724Y+018996
X+006890Y+018996
X+001772Y+020472
X+001772Y+020866
X+001083Y+020669
X+001083Y+012795
X+001772Y+012795
X+001772Y+012402
X+003346Y+011122
X+003051Y+010335
X+003445Y+009941
X+004626Y+010335
X+004921Y+009941
X+004724Y+011122
X+005709Y+012795
X+006890Y+011122
X+005709Y+008858
X+005020Y+007776
X+005020Y+006496
X+007874Y+006594
X+009646Y+008858
X+010827Y+006201
X+012402Y+007677
X+013583Y+008858
X+016339Y+007283
X+017520Y+008465
X+017520Y+008858
X+001772Y+008858
X+001772Y+008465
X+001083Y+008858
X+012894Y+030610
X+013681Y+030217
X+014370Y+030217
X+014862Y+032480
X+015748Y+032087
X+017224Y+031102
X+018406Y+030413
X+014665Y+034252
X+012992Y+034252
X+011122Y+034350
X+008563Y+034350
X+008661Y+032480
X+012992Y+032283
T02
X+007299Y+033260
X+006299Y+033260
X+005299Y+033260
X+005299Y+034260
X+006299Y+034260
X+007299Y+034260
X+004724Y+029921
X+004724Y+029134
X+001378Y+031496
X+002854Y+022244
X+006791Y+022244
X+010728Y+022244
X+014665Y+022244
X+018602Y+022244
X+017224Y+029724
X+017421Y+032874
X+017421Y+033858
X+015059Y+033169
T03
X+002165Y+025197
X+002165Y+024016
T04
X+017224Y+030394
X+017224Y+028661
X+017343Y+005543
X+017343Y+004543
X+017343Y+003543
X+017343Y+002543
X+018343Y+002543
X+018343Y+003543
X+018343Y+004543
X+018343Y+005543
X+016343Y+005543
X+016343Y+004543
X+016343Y+003543
X+016343Y+002543
X+016343Y+001543
X+015343Y+001543
X+014343Y+001543
X+013343Y+001543
X+013343Y+002543
X+014343Y+002543
X+014343Y+003543
X+013343Y+003543
X+013343Y+004543
X+014343Y+004543
X+015343Y+004543
X+015343Y+003543
X+015343Y+002543
X+012343Y+002543
X+011343Y+002543
X+011343Y+003543
X+012343Y+003543
X+012343Y+004543
X+011343Y+004543
X+010343Y+004543
X+010343Y+003543
X+010343Y+002543
X+009343Y+002543
X+009343Y+003543
X+008343Y+003543
X+007343Y+003543
X+007343Y+002543
X+008343Y+002543
X+008343Y+001543
X+007343Y+001543
X+006343Y+001543
X+005343Y+001543
X+004343Y+001543
X+004343Y+002543
X+005343Y+002543
X+005343Y+003543
X+004343Y+003543
X+004343Y+004543
X+005343Y+004543
X+006343Y+004543
X+006343Y+003543
X+006343Y+002543
X+007343Y+004543
X+008343Y+004543
X+009343Y+004543
X+009343Y+005543
X+008343Y+005543
X+007343Y+005543
X+006343Y+005543
X+005343Y+005543
X+004343Y+005543
X+003343Y+005543
X+002343Y+005543
X+002343Y+004543
X+003343Y+004543
X+003343Y+003543
X+002343Y+003543
X+002343Y+002543
X+003343Y+002543
X+003343Y+001543
X+001343Y+002543
X+001343Y+003543
X+001343Y+004543
X+001343Y+005543
X+009343Y+001543
X+010343Y+001543
X+011343Y+001543
X+012343Y+001543
X+012343Y+005543
X+011343Y+005543
X+010343Y+005543
X+013343Y+005543
X+014343Y+005543
X+015343Y+005543
T05
X+009843Y+033661
T00
M30
