G04 DipTrace 2.4.0.2*
%INBottomSilk.gbr*%
%MOIN*%
%ADD15C,0.005*%
%ADD35C,0.0062*%
%ADD36C,0.0046*%
%FSLAX44Y44*%
G04*
G70*
G90*
G75*
G01*
%LNBotSilk*%
%LPD*%
X2969Y4153D2*
D15*
X2669Y4453D1*
X1269D1*
X969Y4153D1*
Y3653D1*
X1169Y3453D1*
X969Y3253D1*
Y2653D1*
X1169Y2453D1*
X969Y2253D1*
Y1753D1*
X1269Y1453D1*
X2669D1*
X2969Y1753D1*
Y2253D1*
X2769Y2453D1*
X2969Y2653D1*
Y3253D1*
X2769Y3453D1*
X2969Y3653D1*
Y4153D1*
X8874D2*
X8574Y4453D1*
X7174D1*
X6874Y4153D1*
Y3653D1*
X7074Y3453D1*
X6874Y3253D1*
Y2653D1*
X7074Y2453D1*
X6874Y2253D1*
Y1753D1*
X7174Y1453D1*
X8574D1*
X8874Y1753D1*
Y2253D1*
X8674Y2453D1*
X8874Y2653D1*
Y3253D1*
X8674Y3453D1*
X8874Y3653D1*
Y4153D1*
X2226Y4637D2*
D35*
X2379Y5039D1*
X2532Y4637D1*
X2475Y4771D2*
X2283D1*
X2102Y5039D2*
X1949Y4637D1*
X1796Y5039D1*
X1673Y4847D2*
X1501D1*
X1443Y4867D1*
X1424Y4886D1*
X1405Y4924D1*
Y4962D1*
X1424Y5000D1*
X1443Y5020D1*
X1501Y5039D1*
X1673D1*
Y4637D1*
X1539Y4847D2*
X1405Y4637D1*
X8624Y4828D2*
X8451D1*
X8394Y4847D1*
X8375Y4867D1*
X8356Y4905D1*
Y4962D1*
X8375Y5000D1*
X8394Y5020D1*
X8451Y5039D1*
X8624D1*
Y4637D1*
X8232Y4847D2*
X8060D1*
X8003Y4867D1*
X7983Y4886D1*
X7964Y4924D1*
Y4962D1*
X7983Y5000D1*
X8003Y5020D1*
X8060Y5039D1*
X8232D1*
Y4637D1*
X8098Y4847D2*
X7964Y4637D1*
X7726Y5039D2*
X7764Y5020D1*
X7802Y4981D1*
X7822Y4943D1*
X7841Y4886D1*
Y4790D1*
X7822Y4733D1*
X7802Y4694D1*
X7764Y4656D1*
X7726Y4637D1*
X7649D1*
X7611Y4656D1*
X7573Y4694D1*
X7554Y4733D1*
X7535Y4790D1*
Y4886D1*
X7554Y4943D1*
X7573Y4981D1*
X7611Y5020D1*
X7649Y5039D1*
X7726D1*
X7124Y4943D2*
X7143Y4981D1*
X7182Y5020D1*
X7220Y5039D1*
X7296D1*
X7335Y5020D1*
X7373Y4981D1*
X7392Y4943D1*
X7411Y4886D1*
Y4790D1*
X7392Y4733D1*
X7373Y4694D1*
X7335Y4656D1*
X7296Y4637D1*
X7220D1*
X7182Y4656D1*
X7143Y4694D1*
X7124Y4733D1*
Y4790D1*
X7220D1*
X9269Y913D2*
D36*
Y612D1*
X8975Y870D2*
X9004Y899D1*
X9047Y913D1*
X9104D1*
X9147Y899D1*
X9176Y870D1*
Y842D1*
X9161Y813D1*
X9147Y799D1*
X9119Y784D1*
X9032Y756D1*
X9004Y741D1*
X8989Y727D1*
X8975Y698D1*
Y655D1*
X9004Y627D1*
X9047Y612D1*
X9104D1*
X9147Y627D1*
X9176Y655D1*
X8882Y756D2*
X8753D1*
X8710Y770D1*
X8696Y784D1*
X8681Y813D1*
Y856D1*
X8696Y885D1*
X8710Y899D1*
X8753Y913D1*
X8882D1*
Y612D1*
X8589Y762D2*
X8423D1*
X8330Y756D2*
X8201D1*
X8158Y770D1*
X8144Y784D1*
X8129Y813D1*
Y856D1*
X8144Y885D1*
X8158Y899D1*
X8201Y913D1*
X8330D1*
Y612D1*
X7951Y913D2*
X7979Y899D1*
X8008Y870D1*
X8023Y842D1*
X8037Y799D1*
Y727D1*
X8023Y684D1*
X8008Y655D1*
X7979Y627D1*
X7951Y612D1*
X7893D1*
X7865Y627D1*
X7836Y655D1*
X7822Y684D1*
X7807Y727D1*
Y799D1*
X7822Y842D1*
X7836Y870D1*
X7865Y899D1*
X7893Y913D1*
X7951D1*
X7499Y842D2*
X7514Y870D1*
X7543Y899D1*
X7571Y913D1*
X7628D1*
X7657Y899D1*
X7686Y870D1*
X7700Y842D1*
X7715Y799D1*
Y727D1*
X7700Y684D1*
X7686Y655D1*
X7657Y627D1*
X7628Y612D1*
X7571D1*
X7543Y627D1*
X7514Y655D1*
X7499Y684D1*
Y727D1*
X7571D1*
X7321Y913D2*
X7349Y899D1*
X7378Y870D1*
X7393Y842D1*
X7407Y799D1*
Y727D1*
X7393Y684D1*
X7378Y655D1*
X7349Y627D1*
X7321Y612D1*
X7263D1*
X7235Y627D1*
X7206Y655D1*
X7192Y684D1*
X7177Y727D1*
Y799D1*
X7192Y842D1*
X7206Y870D1*
X7235Y899D1*
X7263Y913D1*
X7321D1*
M02*
