G04 DipTrace 2.4.0.2*
%INBottom.gbr*%
%MOIN*%
%ADD13C,0.0118*%
%ADD14C,0.025*%
%ADD16C,0.0906*%
%ADD17R,0.0906X0.0906*%
%ADD18C,0.0591*%
%ADD19R,0.0591X0.0591*%
%ADD20C,0.0394*%
%FSLAX44Y44*%
G04*
G70*
G90*
G75*
G01*
%LNBottom*%
%LPD*%
X3642Y3937D2*
D13*
X4035Y3543D1*
X5709D1*
X6890Y4724D1*
X7602D1*
X8374Y3953D1*
X2469Y1953D2*
X2543D1*
X3346Y2756D1*
X6201D1*
X6496Y2461D1*
X7866D1*
X8374Y1953D1*
X7374Y3953D2*
X6890D1*
X6087Y3150D1*
X3445D1*
X3150Y3445D1*
Y4626D1*
X2854Y4921D1*
X2437D1*
X1468Y3953D1*
D20*
X3642Y3937D3*
X390Y5292D2*
D14*
X3940D1*
X5900D2*
X9451D1*
X390Y5043D2*
X2092D1*
X3201D2*
X3834D1*
X6009D2*
X9451D1*
X390Y4794D2*
X1842D1*
X3439D2*
X3787D1*
X6056D2*
X6494D1*
X7998D2*
X9451D1*
X390Y4546D2*
X737D1*
X3486D2*
X3799D1*
X6041D2*
X6244D1*
X8248D2*
X9451D1*
X390Y4297D2*
X737D1*
X8826D2*
X9451D1*
X390Y4048D2*
X737D1*
X8939D2*
X9451D1*
X390Y3800D2*
X737D1*
X8927D2*
X9451D1*
X390Y3551D2*
X737D1*
X8771D2*
X9451D1*
X390Y3302D2*
X737D1*
X8822D2*
X9451D1*
X390Y3053D2*
X744D1*
X8939D2*
X9451D1*
X390Y2805D2*
X752D1*
X8927D2*
X9451D1*
X390Y2556D2*
X862D1*
X8779D2*
X9451D1*
X390Y2307D2*
X1159D1*
X3365D2*
X6182D1*
X8818D2*
X9451D1*
X390Y2059D2*
X1744D1*
X3193D2*
X4217D1*
X5626D2*
X7803D1*
X8935D2*
X9451D1*
X390Y1810D2*
X1752D1*
X3185D2*
X3983D1*
X5861D2*
X7819D1*
X8927D2*
X9451D1*
X390Y1561D2*
X1858D1*
X3080D2*
X3854D1*
X5990D2*
X7963D1*
X8783D2*
X9451D1*
X390Y1313D2*
X2147D1*
X2791D2*
X3795D1*
X6048D2*
X9451D1*
X390Y1064D2*
X3791D1*
X6052D2*
X9451D1*
X390Y815D2*
X3846D1*
X5994D2*
X9451D1*
X390Y567D2*
X3971D1*
X5873D2*
X9451D1*
X6025Y4600D2*
X6004Y4477D1*
X5969Y4356D1*
X5921Y4241D1*
X5866Y4142D1*
X6669Y4945D1*
X6773Y5014D1*
X6890Y5037D1*
X7602D1*
X7724Y5012D1*
X7823Y4945D1*
X8273Y4495D1*
X8415Y4500D1*
X8537Y4476D1*
X8651Y4426D1*
X8751Y4351D1*
X8831Y4255D1*
X8888Y4144D1*
X8918Y4023D1*
X8922Y3953D1*
X8908Y3829D1*
X8866Y3711D1*
X8799Y3606D1*
X8710Y3519D1*
X8599Y3453D1*
X8651Y3426D1*
X8751Y3351D1*
X8831Y3255D1*
X8888Y3144D1*
X8918Y3023D1*
X8922Y2953D1*
X8908Y2829D1*
X8866Y2711D1*
X8799Y2606D1*
X8710Y2519D1*
X8599Y2453D1*
X8651Y2426D1*
X8751Y2351D1*
X8831Y2255D1*
X8888Y2144D1*
X8918Y2023D1*
X8922Y1953D1*
X8908Y1829D1*
X8866Y1711D1*
X8799Y1606D1*
X8710Y1519D1*
X8603Y1455D1*
X8485Y1416D1*
X8360Y1405D1*
X8237Y1422D1*
X8120Y1467D1*
X8017Y1536D1*
X7932Y1628D1*
X7870Y1736D1*
X7834Y1855D1*
X7826Y1980D1*
X7837Y2045D1*
X7736Y2149D1*
X6496Y2148D1*
X6374Y2173D1*
X6275Y2240D1*
X6074Y2442D1*
X3478Y2444D1*
X3156Y2124D1*
X3174Y1953D1*
X3163Y1828D1*
X3131Y1708D1*
X3077Y1595D1*
X3005Y1494D1*
X2915Y1406D1*
X2812Y1336D1*
X2698Y1285D1*
X2577Y1255D1*
X2452Y1247D1*
X2328Y1261D1*
X2209Y1297D1*
X2097Y1353D1*
X1997Y1427D1*
X1912Y1519D1*
X1844Y1623D1*
X1796Y1739D1*
X1769Y1860D1*
X1763Y1985D1*
X1780Y2109D1*
X1818Y2228D1*
X1877Y2338D1*
X1969Y2449D1*
X1812Y2336D1*
X1698Y2285D1*
X1577Y2255D1*
X1452Y2247D1*
X1328Y2261D1*
X1209Y2297D1*
X1097Y2353D1*
X997Y2427D1*
X912Y2519D1*
X844Y2623D1*
X796Y2739D1*
X769Y2860D1*
X763Y2985D1*
X780Y3109D1*
X828Y3245D1*
X763Y3247D1*
Y4659D1*
X1735D1*
X2216Y5142D1*
X2320Y5211D1*
X2437Y5233D1*
X2854D1*
X2976Y5209D1*
X3075Y5142D1*
X3370Y4847D1*
X3439Y4743D1*
X3462Y4626D1*
Y4349D1*
X3523Y4371D1*
X3646Y4387D1*
X3770Y4368D1*
X3892Y4309D1*
X3836Y4487D1*
X3817Y4611D1*
X3811Y4735D1*
X3819Y4860D1*
X3841Y4983D1*
X3877Y5103D1*
X3926Y5218D1*
X3988Y5326D1*
X4061Y5427D1*
X4172Y5542D1*
X1727Y5540D1*
X365D1*
Y365D1*
X4166D1*
X4048Y495D1*
X3976Y598D1*
X3917Y708D1*
X3870Y824D1*
X3836Y944D1*
X3817Y1067D1*
X3811Y1192D1*
X3819Y1317D1*
X3841Y1440D1*
X3877Y1559D1*
X3926Y1674D1*
X3988Y1783D1*
X4061Y1884D1*
X4146Y1976D1*
X4240Y2058D1*
X4343Y2129D1*
X4453Y2188D1*
X4569Y2234D1*
X4690Y2267D1*
X4813Y2286D1*
X4938Y2292D1*
X5062Y2283D1*
X5185Y2260D1*
X5305Y2223D1*
X5419Y2174D1*
X5528Y2111D1*
X5628Y2037D1*
X5720Y1953D1*
X5802Y1858D1*
X5872Y1755D1*
X5931Y1644D1*
X5976Y1528D1*
X6009Y1407D1*
X6032Y1181D1*
X6025Y1056D1*
X6004Y933D1*
X5969Y813D1*
X5921Y698D1*
X5861Y589D1*
X5788Y487D1*
X5672Y365D1*
X9477D1*
Y5540D1*
X5677D1*
X5802Y5401D1*
X5872Y5298D1*
X5931Y5188D1*
X5976Y5071D1*
X6009Y4951D1*
X6032Y4724D1*
X6025Y4600D1*
D16*
X2469Y3953D3*
D17*
X1469D3*
D16*
X2469Y2953D3*
X1469D3*
X2469Y1953D3*
X1469D3*
D18*
X8374Y3953D3*
D19*
X7374D3*
D18*
X8374Y2953D3*
X7374D3*
X8374Y1953D3*
X7374D3*
M02*
