G04 DipTrace 2.4.0.2*
%INBottomSilk.gbr*%
%MOIN*%
%ADD10C,0.0098*%
%ADD13C,0.0197*%
%ADD21C,0.0079*%
%ADD29C,0.005*%
%ADD60C,0.0062*%
%ADD61C,0.0093*%
%FSLAX44Y44*%
G04*
G70*
G90*
G75*
G01*
%LNBotSilk*%
%LPD*%
X19567Y31063D2*
D10*
Y27992D1*
Y31063D2*
X19075D1*
X17744D2*
X16901D1*
X15866Y30709D2*
Y30433D1*
Y28622D2*
Y28347D1*
X16901Y27992D2*
X17744D1*
X19075D2*
X19567D1*
D13*
X15531Y30158D3*
X787Y30414D2*
D29*
Y28642D1*
X2165Y27953D2*
X3740D1*
Y28287D1*
X2756D1*
Y28839D1*
Y30216D2*
Y30768D1*
X3740D1*
Y31102D1*
X2165D1*
X7499Y32760D2*
X7799Y33060D1*
Y34460D1*
X7499Y34760D1*
X6999D1*
X6799Y34560D1*
X6599Y34760D1*
X5999D1*
X5799Y34560D1*
X5599Y34760D1*
X5099D1*
X4799Y34460D1*
Y33060D1*
X5099Y32760D1*
X5599D1*
X5799Y32960D1*
X5999Y32760D1*
X6599D1*
X6799Y32960D1*
X6999Y32760D1*
X7499D1*
X2842Y6043D2*
D10*
X16843D1*
Y2043D1*
X2842D1*
Y6043D1*
X843D2*
X2842D1*
Y2043D1*
X843D1*
Y6043D1*
X16843D2*
X18843D1*
Y2043D1*
X16843D1*
Y6043D1*
X2842Y2043D2*
X16843D1*
Y1043D1*
X2842D1*
Y2043D1*
X2854Y23189D2*
D21*
X1476D1*
Y26024D1*
X2854D1*
Y23189D1*
X8858Y33661D2*
G02X8858Y33661I984J0D01*
G01*
G36*
X984Y19783D2*
X1772D1*
Y18996D1*
X984D1*
Y19783D1*
G37*
X18025Y32357D2*
D60*
Y32070D1*
X18006Y32013D1*
X17968Y31975D1*
X17910Y31956D1*
X17872D1*
X17815Y31975D1*
X17777Y32013D1*
X17757Y32070D1*
Y32357D1*
X17366Y32300D2*
X17404Y32338D1*
X17462Y32357D1*
X17538D1*
X17596Y32338D1*
X17634Y32300D1*
Y32262D1*
X17615Y32223D1*
X17596Y32204D1*
X17557Y32185D1*
X17443Y32147D1*
X17404Y32128D1*
X17385Y32109D1*
X17366Y32070D1*
Y32013D1*
X17404Y31975D1*
X17462Y31956D1*
X17538D1*
X17596Y31975D1*
X17634Y32013D1*
X17243Y32357D2*
Y31956D1*
X17070D1*
X17013Y31975D1*
X16994Y31994D1*
X16975Y32032D1*
Y32089D1*
X16994Y32128D1*
X17013Y32147D1*
X17070Y32166D1*
X17013Y32185D1*
X16994Y32204D1*
X16975Y32242D1*
Y32281D1*
X16994Y32319D1*
X17013Y32338D1*
X17070Y32357D1*
X17243D1*
Y32166D2*
X17070D1*
X3260Y32653D2*
Y32251D1*
X3088D1*
X3030Y32270D1*
X3011Y32289D1*
X2992Y32327D1*
Y32385D1*
X3011Y32423D1*
X3030Y32442D1*
X3088Y32461D1*
X3030Y32481D1*
X3011Y32500D1*
X2992Y32538D1*
Y32576D1*
X3011Y32614D1*
X3030Y32634D1*
X3088Y32653D1*
X3260D1*
Y32461D2*
X3088D1*
X2562Y32251D2*
X2716Y32653D1*
X2869Y32251D1*
X2811Y32385D2*
X2620D1*
X2305Y32653D2*
Y32251D1*
X2439Y32653D2*
X2171D1*
X1913D2*
Y32251D1*
X2047Y32653D2*
X1779D1*
X2576Y26609D2*
X2614Y26590D1*
X2652Y26552D1*
X2672Y26514D1*
X2691Y26456D1*
Y26360D1*
X2672Y26303D1*
X2652Y26265D1*
X2614Y26227D1*
X2576Y26207D1*
X2499D1*
X2461Y26227D1*
X2423Y26265D1*
X2404Y26303D1*
X2385Y26360D1*
Y26456D1*
X2404Y26514D1*
X2423Y26552D1*
X2461Y26590D1*
X2499Y26609D1*
X2576D1*
X2012D2*
X2261D1*
Y26207D1*
Y26418D2*
X2108D1*
X1640Y26609D2*
X1889D1*
Y26207D1*
Y26418D2*
X1736D1*
X2399Y23053D2*
X2438Y23034D1*
X2476Y22996D1*
X2495Y22958D1*
X2514Y22900D1*
Y22804D1*
X2495Y22747D1*
X2476Y22709D1*
X2438Y22671D1*
X2399Y22651D1*
X2323D1*
X2285Y22671D1*
X2246Y22709D1*
X2227Y22747D1*
X2208Y22804D1*
Y22900D1*
X2227Y22958D1*
X2246Y22996D1*
X2285Y23034D1*
X2323Y23053D1*
X2399D1*
X1817D2*
Y22651D1*
X2085Y23053D1*
Y22651D1*
X4011Y28431D2*
Y28775D1*
X3839Y28603D2*
X4183D1*
X4071Y30347D2*
Y30568D1*
X18075Y25916D2*
D61*
Y25658D1*
X18046Y25572D1*
X18017Y25543D1*
X17960Y25514D1*
X17903D1*
X17846Y25543D1*
X17816Y25572D1*
X17788Y25658D1*
Y25916D1*
X18391D1*
X18075Y25715D2*
X18391Y25514D1*
X17989Y24985D2*
X18391D1*
X18075D2*
X18017Y25042D1*
X17989Y25100D1*
Y25185D1*
X18017Y25243D1*
X18075Y25300D1*
X18161Y25329D1*
X18218D1*
X18305Y25300D1*
X18362Y25243D1*
X18391Y25185D1*
Y25100D1*
X18362Y25042D1*
X18305Y24985D1*
X17788Y24800D2*
X17816Y24771D1*
X17788Y24742D1*
X17759Y24771D1*
X17788Y24800D1*
X17989Y24771D2*
X18391D1*
X17989Y24557D2*
X18391D1*
X18104D2*
X18017Y24470D1*
X17989Y24413D1*
Y24327D1*
X18017Y24269D1*
X18104Y24241D1*
X18391D1*
X17788Y24056D2*
X18391D1*
X18075D2*
X18017Y23998D1*
X17989Y23941D1*
Y23855D1*
X18017Y23798D1*
X18075Y23740D1*
X18161Y23711D1*
X18218D1*
X18305Y23740D1*
X18362Y23798D1*
X18391Y23855D1*
Y23941D1*
X18362Y23998D1*
X18305Y24056D1*
X17989Y23383D2*
X18017Y23440D1*
X18075Y23498D1*
X18161Y23526D1*
X18218D1*
X18305Y23498D1*
X18362Y23440D1*
X18391Y23383D1*
Y23297D1*
X18362Y23239D1*
X18305Y23182D1*
X18218Y23153D1*
X18161D1*
X18075Y23182D1*
X18017Y23239D1*
X17989Y23297D1*
Y23383D1*
Y22967D2*
X18391Y22853D1*
X17989Y22738D1*
X18391Y22623D1*
X17989Y22508D1*
X17788Y21740D2*
X18391D1*
Y21481D1*
X18362Y21395D1*
X18333Y21367D1*
X18276Y21338D1*
X18190D1*
X18132Y21367D1*
X18104Y21395D1*
X18075Y21481D1*
X18046Y21395D1*
X18017Y21367D1*
X17960Y21338D1*
X17903D1*
X17846Y21367D1*
X17816Y21395D1*
X17788Y21481D1*
Y21740D1*
X18075D2*
Y21481D1*
X17989Y20809D2*
X18391D1*
X18075D2*
X18017Y20866D1*
X17989Y20923D1*
Y21009D1*
X18017Y21067D1*
X18075Y21124D1*
X18161Y21153D1*
X18218D1*
X18305Y21124D1*
X18362Y21067D1*
X18391Y21009D1*
Y20923D1*
X18362Y20866D1*
X18305Y20809D1*
X17788Y20279D2*
X18391D1*
X18075D2*
X18017Y20336D1*
X17989Y20394D1*
Y20480D1*
X18017Y20537D1*
X18075Y20595D1*
X18161Y20623D1*
X18218D1*
X18305Y20595D1*
X18362Y20537D1*
X18391Y20480D1*
Y20394D1*
X18362Y20336D1*
X18305Y20279D1*
X18017Y19750D2*
X18477D1*
X18563Y19778D1*
X18592Y19807D1*
X18620Y19864D1*
Y19951D1*
X18592Y20008D1*
X18104Y19750D2*
X18047Y19807D1*
X18017Y19864D1*
Y19951D1*
X18047Y20008D1*
X18104Y20065D1*
X18190Y20094D1*
X18248D1*
X18333Y20065D1*
X18391Y20008D1*
X18419Y19951D1*
Y19864D1*
X18391Y19807D1*
X18333Y19750D1*
X18161Y19564D2*
Y19220D1*
X18104D1*
X18046Y19249D1*
X18017Y19277D1*
X17989Y19335D1*
Y19421D1*
X18017Y19478D1*
X18075Y19536D1*
X18161Y19564D1*
X18218D1*
X18305Y19536D1*
X18362Y19478D1*
X18391Y19421D1*
Y19335D1*
X18362Y19277D1*
X18305Y19220D1*
X18075Y18452D2*
Y18194D1*
X18046Y18107D1*
X18017Y18078D1*
X17960Y18050D1*
X17903D1*
X17846Y18078D1*
X17816Y18107D1*
X17788Y18194D1*
Y18452D1*
X18391D1*
X18075Y18251D2*
X18391Y18050D1*
X18161Y17864D2*
Y17520D1*
X18104D1*
X18046Y17549D1*
X18017Y17577D1*
X17989Y17635D1*
Y17721D1*
X18017Y17778D1*
X18075Y17836D1*
X18161Y17864D1*
X18218D1*
X18305Y17836D1*
X18362Y17778D1*
X18391Y17721D1*
Y17635D1*
X18362Y17577D1*
X18305Y17520D1*
X17989Y17335D2*
X18391Y17162D1*
X17989Y16991D1*
X18333Y16777D2*
X18362Y16805D1*
X18391Y16777D1*
X18362Y16748D1*
X18333Y16777D1*
X17788Y15979D2*
X18391D1*
Y15721D1*
X18362Y15634D1*
X18333Y15606D1*
X18276Y15577D1*
X18190D1*
X18132Y15606D1*
X18104Y15634D1*
X18075Y15721D1*
X18046Y15634D1*
X18017Y15606D1*
X17960Y15577D1*
X17903D1*
X17846Y15606D1*
X17816Y15634D1*
X17788Y15721D1*
Y15979D1*
X18075D2*
Y15721D1*
X17788Y14809D2*
X18391D1*
X18075D2*
X18017Y14751D1*
X17989Y14694D1*
Y14608D1*
X18017Y14551D1*
X18075Y14493D1*
X18161Y14465D1*
X18218D1*
X18305Y14493D1*
X18362Y14551D1*
X18391Y14608D1*
Y14694D1*
X18362Y14751D1*
X18305Y14809D1*
X17989Y14250D2*
X18391Y14078D1*
X18506Y14135D1*
X18563Y14193D1*
X18592Y14250D1*
Y14279D1*
X17989Y13906D2*
X18391Y14078D1*
X17788Y13137D2*
X18391D1*
Y12937D1*
X18362Y12850D1*
X18305Y12793D1*
X18247Y12764D1*
X18161Y12736D1*
X18017D1*
X17931Y12764D1*
X17874Y12793D1*
X17816Y12850D1*
X17788Y12937D1*
Y13137D1*
X17989Y12206D2*
X18391D1*
X18075D2*
X18017Y12263D1*
X17989Y12321D1*
Y12406D1*
X18017Y12464D1*
X18075Y12521D1*
X18161Y12550D1*
X18218D1*
X18305Y12521D1*
X18362Y12464D1*
X18391Y12406D1*
Y12321D1*
X18362Y12263D1*
X18305Y12206D1*
X17989Y12021D2*
X18391Y11848D1*
X17989Y11677D1*
X17788Y11491D2*
X17816Y11463D1*
X17788Y11434D1*
X17759Y11463D1*
X17788Y11491D1*
X17989Y11463D2*
X18391D1*
X17788Y10904D2*
X18391D1*
X18075D2*
X18017Y10961D1*
X17989Y11019D1*
Y11105D1*
X18017Y11162D1*
X18075Y11220D1*
X18161Y11248D1*
X18218D1*
X18305Y11220D1*
X18362Y11162D1*
X18391Y11105D1*
Y11019D1*
X18362Y10961D1*
X18305Y10904D1*
X17874Y9734D2*
X17816Y9791D1*
X17788Y9877D1*
Y9992D1*
X17816Y10078D1*
X17874Y10136D1*
X17931D1*
X17989Y10106D1*
X18017Y10078D1*
X18046Y10021D1*
X18104Y9848D1*
X18132Y9791D1*
X18161Y9762D1*
X18218Y9734D1*
X18305D1*
X18362Y9791D1*
X18391Y9877D1*
Y9992D1*
X18362Y10078D1*
X18305Y10136D1*
X17989Y9548D2*
X18391D1*
X18104D2*
X18017Y9462D1*
X17989Y9405D1*
Y9319D1*
X18017Y9261D1*
X18104Y9233D1*
X18391D1*
X18104D2*
X18017Y9147D1*
X17989Y9089D1*
Y9003D1*
X18017Y8946D1*
X18104Y8916D1*
X18391D1*
X17788Y8731D2*
X17816Y8703D1*
X17788Y8673D1*
X17759Y8703D1*
X17788Y8731D1*
X17989Y8703D2*
X18391D1*
X17788Y8402D2*
X18276D1*
X18362Y8373D1*
X18391Y8316D1*
Y8259D1*
X17989Y8488D2*
Y8287D1*
X17788Y8073D2*
X18391D1*
X18104D2*
X18017Y7987D1*
X17989Y7929D1*
Y7843D1*
X18017Y7786D1*
X18104Y7758D1*
X18391D1*
X1185Y18441D2*
D60*
X1587D1*
Y18212D1*
X1185Y18088D2*
X1204Y18069D1*
X1185Y18050D1*
X1165Y18069D1*
X1185Y18088D1*
X1319Y18069D2*
X1587D1*
X1395Y17926D2*
Y17754D1*
X1376Y17697D1*
X1357Y17677D1*
X1319Y17658D1*
X1261D1*
X1223Y17677D1*
X1204Y17697D1*
X1185Y17754D1*
Y17926D1*
X1587D1*
X1319Y17439D2*
X1338Y17477D1*
X1376Y17516D1*
X1434Y17535D1*
X1472D1*
X1529Y17516D1*
X1567Y17477D1*
X1587Y17439D1*
Y17382D1*
X1567Y17343D1*
X1529Y17305D1*
X1472Y17286D1*
X1434D1*
X1376Y17305D1*
X1338Y17343D1*
X1319Y17382D1*
Y17439D1*
X1280Y16487D2*
X1242Y16506D1*
X1204Y16544D1*
X1185Y16582D1*
Y16659D1*
X1204Y16697D1*
X1242Y16735D1*
X1280Y16755D1*
X1338Y16774D1*
X1434D1*
X1491Y16755D1*
X1529Y16735D1*
X1567Y16697D1*
X1587Y16659D1*
Y16582D1*
X1567Y16544D1*
X1529Y16506D1*
X1491Y16487D1*
X1185Y16363D2*
X1587D1*
X1395D2*
X1338Y16306D1*
X1319Y16267D1*
Y16210D1*
X1338Y16172D1*
X1395Y16153D1*
X1587D1*
X1319Y15800D2*
X1587D1*
X1376D2*
X1338Y15838D1*
X1319Y15876D1*
Y15933D1*
X1338Y15972D1*
X1376Y16010D1*
X1434Y16029D1*
X1472D1*
X1529Y16010D1*
X1567Y15972D1*
X1587Y15933D1*
Y15876D1*
X1567Y15838D1*
X1529Y15800D1*
X1319Y15676D2*
X1587D1*
X1434D2*
X1376Y15657D1*
X1338Y15619D1*
X1319Y15580D1*
Y15523D1*
X1338Y15170D2*
X1644D1*
X1701Y15189D1*
X1721Y15208D1*
X1740Y15246D1*
Y15304D1*
X1721Y15342D1*
X1395Y15170D2*
X1357Y15208D1*
X1338Y15246D1*
Y15304D1*
X1357Y15342D1*
X1395Y15380D1*
X1453Y15399D1*
X1491D1*
X1548Y15380D1*
X1587Y15342D1*
X1606Y15304D1*
Y15246D1*
X1587Y15208D1*
X1548Y15170D1*
X1434Y15046D2*
Y14817D1*
X1395D1*
X1357Y14836D1*
X1338Y14855D1*
X1319Y14893D1*
Y14951D1*
X1338Y14989D1*
X1376Y15027D1*
X1434Y15046D1*
X1472D1*
X1529Y15027D1*
X1567Y14989D1*
X1587Y14951D1*
Y14893D1*
X1567Y14855D1*
X1529Y14817D1*
X1319Y14693D2*
X1587D1*
X1434D2*
X1376Y14674D1*
X1338Y14636D1*
X1319Y14597D1*
Y14540D1*
X1185Y13779D2*
Y14027D1*
X1587D1*
Y13779D1*
X1376Y14027D2*
Y13874D1*
X1319Y13655D2*
X1587D1*
X1395D2*
X1338Y13598D1*
X1319Y13560D1*
Y13502D1*
X1338Y13464D1*
X1395Y13445D1*
X1587D1*
X1319Y13092D2*
X1587D1*
X1376D2*
X1338Y13130D1*
X1319Y13168D1*
Y13226D1*
X1338Y13264D1*
X1376Y13302D1*
X1434Y13321D1*
X1472D1*
X1529Y13302D1*
X1567Y13264D1*
X1587Y13226D1*
Y13168D1*
X1567Y13130D1*
X1529Y13092D1*
X1185Y12968D2*
X1587D1*
X1376D2*
X1338Y12930D1*
X1319Y12892D1*
Y12835D1*
X1338Y12796D1*
X1376Y12758D1*
X1434Y12739D1*
X1472D1*
X1529Y12758D1*
X1567Y12796D1*
X1587Y12835D1*
Y12892D1*
X1567Y12930D1*
X1529Y12968D1*
X1185Y12615D2*
X1587D1*
X1434Y12492D2*
Y12262D1*
X1395D1*
X1357Y12282D1*
X1338Y12301D1*
X1319Y12339D1*
Y12396D1*
X1338Y12434D1*
X1376Y12473D1*
X1434Y12492D1*
X1472D1*
X1529Y12473D1*
X1567Y12434D1*
X1587Y12396D1*
Y12339D1*
X1567Y12301D1*
X1529Y12262D1*
X1185Y11910D2*
X1587D1*
X1376D2*
X1338Y11948D1*
X1319Y11986D1*
Y12043D1*
X1338Y12082D1*
X1376Y12120D1*
X1434Y12139D1*
X1472D1*
X1529Y12120D1*
X1567Y12082D1*
X1587Y12043D1*
Y11986D1*
X1567Y11948D1*
X1529Y11910D1*
X1080Y11263D2*
X1118Y11302D1*
X1175Y11340D1*
X1252Y11378D1*
X1348Y11397D1*
X1424D1*
X1520Y11378D1*
X1596Y11340D1*
X1654Y11302D1*
X1692Y11263D1*
X1587Y10834D2*
X1185D1*
X1587Y10987D1*
X1185Y11140D1*
X1587D1*
X1319Y10481D2*
X1587D1*
X1376D2*
X1338Y10519D1*
X1319Y10557D1*
Y10614D1*
X1338Y10653D1*
X1376Y10691D1*
X1434Y10710D1*
X1472D1*
X1529Y10691D1*
X1567Y10653D1*
X1587Y10614D1*
Y10557D1*
X1567Y10519D1*
X1529Y10481D1*
X1319Y10357D2*
X1587D1*
X1434D2*
X1376Y10338D1*
X1338Y10300D1*
X1319Y10261D1*
Y10204D1*
X1185Y10080D2*
X1587D1*
X1319Y9889D2*
X1510Y10080D1*
X1434Y10004D2*
X1587Y9870D1*
X1080Y9746D2*
X1118Y9708D1*
X1175Y9670D1*
X1252Y9631D1*
X1348Y9612D1*
X1424D1*
X1520Y9631D1*
X1596Y9670D1*
X1654Y9708D1*
X1692Y9746D1*
X4157Y31988D2*
X4196Y31950D1*
X4234Y31893D1*
X4272Y31816D1*
X4291Y31720D1*
Y31644D1*
X4272Y31548D1*
X4234Y31472D1*
X4196Y31414D1*
X4157Y31376D1*
X3995Y31883D2*
X3785D1*
X3900Y31730D1*
X3842D1*
X3804Y31711D1*
X3785Y31692D1*
X3766Y31634D1*
Y31596D1*
X3785Y31539D1*
X3823Y31500D1*
X3881Y31481D1*
X3938D1*
X3995Y31500D1*
X4014Y31520D1*
X4034Y31558D1*
X3623Y31520D2*
X3642Y31500D1*
X3623Y31481D1*
X3604Y31500D1*
X3623Y31520D1*
X3404Y31481D2*
X3212Y31883D1*
X3480D1*
X3089D2*
X2936Y31481D1*
X2783Y31883D1*
X2659Y31682D2*
X2438D1*
X2123Y31481D2*
Y31883D1*
X2315Y31615D1*
X2028D1*
X1885Y31520D2*
X1904Y31500D1*
X1885Y31481D1*
X1866Y31500D1*
X1885Y31520D1*
X1513Y31883D2*
X1704D1*
X1723Y31711D1*
X1704Y31730D1*
X1646Y31749D1*
X1589D1*
X1532Y31730D1*
X1493Y31692D1*
X1474Y31634D1*
Y31596D1*
X1493Y31539D1*
X1532Y31500D1*
X1589Y31481D1*
X1646D1*
X1704Y31500D1*
X1723Y31520D1*
X1742Y31558D1*
X1351Y31883D2*
X1198Y31481D1*
X1045Y31883D1*
X921Y31988D2*
X883Y31950D1*
X845Y31893D1*
X806Y31816D1*
X787Y31720D1*
Y31644D1*
X806Y31548D1*
X845Y31472D1*
X883Y31414D1*
X921Y31376D1*
X9969Y26695D2*
X10371D1*
X9969Y26419D2*
Y26457D1*
X9988Y26495D1*
X10046Y26514D1*
X10371D1*
X10103Y26572D2*
Y26438D1*
X9969Y25906D2*
X10256D1*
X10314Y25887D1*
X10352Y25849D1*
X10371Y25791D1*
Y25753D1*
X10352Y25696D1*
X10314Y25657D1*
X10256Y25638D1*
X9969D1*
X10161Y25304D2*
X10122Y25323D1*
X10103Y25381D1*
Y25438D1*
X10122Y25496D1*
X10161Y25515D1*
X10199Y25496D1*
X10218Y25457D1*
X10237Y25362D1*
X10256Y25323D1*
X10295Y25304D1*
X10314D1*
X10352Y25323D1*
X10371Y25381D1*
Y25438D1*
X10352Y25496D1*
X10314Y25515D1*
X9969Y25181D2*
X9988Y25162D1*
X9969Y25142D1*
X9950Y25162D1*
X9969Y25181D1*
X10103Y25162D2*
X10371D1*
X10103Y25019D2*
X10371D1*
X10180D2*
X10122Y24961D1*
X10103Y24923D1*
Y24866D1*
X10122Y24827D1*
X10180Y24808D1*
X10371D1*
X10122Y24455D2*
X10429D1*
X10486Y24474D1*
X10505Y24494D1*
X10524Y24532D1*
Y24589D1*
X10505Y24627D1*
X10180Y24455D2*
X10142Y24494D1*
X10122Y24532D1*
Y24589D1*
X10142Y24627D1*
X10180Y24666D1*
X10237Y24685D1*
X10276D1*
X10333Y24666D1*
X10371Y24627D1*
X10390Y24589D1*
Y24532D1*
X10371Y24494D1*
X10333Y24455D1*
X9969Y23943D2*
X10371D1*
Y23714D1*
X9969Y23590D2*
X9988Y23571D1*
X9969Y23552D1*
X9950Y23571D1*
X9969Y23590D1*
X10103Y23571D2*
X10371D1*
X10180Y23428D2*
Y23256D1*
X10161Y23199D1*
X10141Y23179D1*
X10103Y23160D1*
X10046D1*
X10008Y23179D1*
X9988Y23199D1*
X9969Y23256D1*
Y23428D1*
X10371D1*
X10103Y22941D2*
X10122Y22979D1*
X10161Y23018D1*
X10218Y23037D1*
X10256D1*
X10314Y23018D1*
X10352Y22979D1*
X10371Y22941D1*
Y22884D1*
X10352Y22845D1*
X10314Y22807D1*
X10256Y22788D1*
X10218D1*
X10161Y22807D1*
X10122Y22845D1*
X10103Y22884D1*
Y22941D1*
X9969Y22275D2*
X10371D1*
Y22103D1*
X10352Y22046D1*
X10333Y22027D1*
X10295Y22008D1*
X10237D1*
X10199Y22027D1*
X10180Y22046D1*
X10161Y22103D1*
X10141Y22046D1*
X10122Y22027D1*
X10084Y22008D1*
X10046D1*
X10008Y22027D1*
X9988Y22046D1*
X9969Y22103D1*
Y22275D1*
X10161D2*
Y22103D1*
X10103Y21655D2*
X10371D1*
X10161D2*
X10122Y21693D1*
X10103Y21731D1*
Y21788D1*
X10122Y21827D1*
X10161Y21865D1*
X10218Y21884D1*
X10256D1*
X10314Y21865D1*
X10352Y21827D1*
X10371Y21788D1*
Y21731D1*
X10352Y21693D1*
X10314Y21655D1*
X9969Y21474D2*
X10295D1*
X10352Y21455D1*
X10371Y21416D1*
Y21378D1*
X10103Y21531D2*
Y21397D1*
X9969Y21197D2*
X10295D1*
X10352Y21178D1*
X10371Y21140D1*
Y21102D1*
X10103Y21255D2*
Y21121D1*
X10218Y20978D2*
Y20749D1*
X10180D1*
X10141Y20768D1*
X10122Y20787D1*
X10103Y20825D1*
Y20883D1*
X10122Y20921D1*
X10161Y20959D1*
X10218Y20978D1*
X10256D1*
X10314Y20959D1*
X10352Y20921D1*
X10371Y20883D1*
Y20825D1*
X10352Y20787D1*
X10314Y20749D1*
X10103Y20625D2*
X10371D1*
X10218D2*
X10161Y20606D1*
X10122Y20568D1*
X10103Y20529D1*
Y20472D1*
Y20329D2*
X10371Y20214D1*
X10448Y20252D1*
X10486Y20291D1*
X10505Y20329D1*
Y20348D1*
X10103Y20099D2*
X10371Y20214D1*
X10352Y19937D2*
X10371Y19957D1*
X10352Y19976D1*
X10333Y19957D1*
X10352Y19937D1*
X10390D1*
X10429Y19957D1*
X10448Y19976D1*
X9969Y19176D2*
Y19425D1*
X10371D1*
Y19176D1*
X10161Y19425D2*
Y19272D1*
X10103Y19053D2*
X10371D1*
X10180D2*
X10122Y18995D1*
X10103Y18957D1*
Y18900D1*
X10122Y18861D1*
X10180Y18842D1*
X10371D1*
X10161Y18508D2*
X10122Y18527D1*
X10103Y18585D1*
Y18642D1*
X10122Y18700D1*
X10161Y18719D1*
X10199Y18700D1*
X10218Y18661D1*
X10237Y18566D1*
X10256Y18527D1*
X10295Y18508D1*
X10314D1*
X10352Y18527D1*
X10371Y18585D1*
Y18642D1*
X10352Y18700D1*
X10314Y18719D1*
X10103Y18385D2*
X10295D1*
X10352Y18366D1*
X10371Y18327D1*
Y18270D1*
X10352Y18232D1*
X10295Y18174D1*
X10103D2*
X10371D1*
X10103Y18051D2*
X10371D1*
X10218D2*
X10161Y18031D1*
X10122Y17993D1*
X10103Y17955D1*
Y17897D1*
X10218Y17774D2*
Y17544D1*
X10180D1*
X10141Y17563D1*
X10122Y17583D1*
X10103Y17621D1*
Y17678D1*
X10122Y17716D1*
X10161Y17755D1*
X10218Y17774D1*
X10256D1*
X10314Y17755D1*
X10352Y17716D1*
X10371Y17678D1*
Y17621D1*
X10352Y17583D1*
X10314Y17544D1*
X10065Y16745D2*
X10027Y16764D1*
X9988Y16803D1*
X9969Y16841D1*
Y16917D1*
X9988Y16956D1*
X10027Y16994D1*
X10065Y17013D1*
X10122Y17032D1*
X10218D1*
X10275Y17013D1*
X10314Y16994D1*
X10352Y16956D1*
X10371Y16917D1*
Y16841D1*
X10352Y16803D1*
X10314Y16764D1*
X10275Y16745D1*
X10103Y16392D2*
X10371D1*
X10161D2*
X10122Y16430D1*
X10103Y16469D1*
Y16526D1*
X10122Y16564D1*
X10161Y16602D1*
X10218Y16622D1*
X10256D1*
X10314Y16602D1*
X10352Y16564D1*
X10371Y16526D1*
Y16469D1*
X10352Y16430D1*
X10314Y16392D1*
X10103Y16269D2*
X10505D1*
X10161D2*
X10123Y16230D1*
X10103Y16192D1*
Y16135D1*
X10123Y16096D1*
X10161Y16058D1*
X10218Y16039D1*
X10257D1*
X10314Y16058D1*
X10352Y16096D1*
X10371Y16135D1*
Y16192D1*
X10352Y16230D1*
X10314Y16269D1*
X10103Y15686D2*
X10371D1*
X10161D2*
X10122Y15724D1*
X10103Y15762D1*
Y15819D1*
X10122Y15858D1*
X10161Y15896D1*
X10218Y15915D1*
X10256D1*
X10314Y15896D1*
X10352Y15858D1*
X10371Y15819D1*
Y15762D1*
X10352Y15724D1*
X10314Y15686D1*
X10161Y15332D2*
X10122Y15371D1*
X10103Y15409D1*
Y15466D1*
X10122Y15505D1*
X10161Y15543D1*
X10218Y15562D1*
X10256D1*
X10314Y15543D1*
X10352Y15505D1*
X10371Y15466D1*
Y15409D1*
X10352Y15371D1*
X10314Y15332D1*
X9969Y15209D2*
X9988Y15190D1*
X9969Y15170D1*
X9950Y15190D1*
X9969Y15209D1*
X10103Y15190D2*
X10371D1*
X9969Y14989D2*
X10295D1*
X10352Y14970D1*
X10371Y14932D1*
Y14894D1*
X10103Y15047D2*
Y14913D1*
Y14751D2*
X10371Y14636D1*
X10448Y14674D1*
X10486Y14713D1*
X10505Y14751D1*
Y14770D1*
X10103Y14521D2*
X10371Y14636D1*
X9969Y14009D2*
X10371D1*
X10161Y13675D2*
X10122Y13694D1*
X10103Y13752D1*
Y13809D1*
X10122Y13867D1*
X10161Y13886D1*
X10199Y13867D1*
X10218Y13828D1*
X10237Y13733D1*
X10256Y13694D1*
X10295Y13675D1*
X10314D1*
X10352Y13694D1*
X10371Y13752D1*
Y13809D1*
X10352Y13867D1*
X10314Y13886D1*
X10371Y12856D2*
X9969Y13010D1*
X10371Y13163D1*
X10237Y13105D2*
Y12914D1*
X9969Y12675D2*
X10295D1*
X10352Y12656D1*
X10371Y12618D1*
Y12580D1*
X10103Y12733D2*
Y12599D1*
X9969Y12068D2*
X10371D1*
Y11838D1*
X10218Y11715D2*
Y11485D1*
X10180D1*
X10141Y11504D1*
X10122Y11523D1*
X10103Y11562D1*
Y11619D1*
X10122Y11657D1*
X10161Y11696D1*
X10218Y11715D1*
X10256D1*
X10314Y11696D1*
X10352Y11657D1*
X10371Y11619D1*
Y11562D1*
X10352Y11523D1*
X10314Y11485D1*
X10103Y11132D2*
X10371D1*
X10161D2*
X10122Y11170D1*
X10103Y11209D1*
Y11266D1*
X10122Y11304D1*
X10161Y11342D1*
X10218Y11362D1*
X10256D1*
X10314Y11342D1*
X10352Y11304D1*
X10371Y11266D1*
Y11209D1*
X10352Y11170D1*
X10314Y11132D1*
X10161Y10798D2*
X10122Y10817D1*
X10103Y10875D1*
Y10932D1*
X10122Y10990D1*
X10161Y11009D1*
X10199Y10990D1*
X10218Y10951D1*
X10237Y10856D1*
X10256Y10817D1*
X10295Y10798D1*
X10314D1*
X10352Y10817D1*
X10371Y10875D1*
Y10932D1*
X10352Y10990D1*
X10314Y11009D1*
X9969Y10617D2*
X10295D1*
X10352Y10598D1*
X10371Y10560D1*
Y10522D1*
X10103Y10675D2*
Y10541D1*
X9970Y9780D2*
Y9971D1*
X10142Y9990D1*
X10123Y9971D1*
X10103Y9913D1*
Y9856D1*
X10123Y9799D1*
X10161Y9760D1*
X10218Y9741D1*
X10256D1*
X10314Y9760D1*
X10352Y9799D1*
X10371Y9856D1*
Y9913D1*
X10352Y9971D1*
X10333Y9990D1*
X10295Y10009D1*
X9970Y9503D2*
X9989Y9560D1*
X10046Y9599D1*
X10142Y9618D1*
X10199D1*
X10295Y9599D1*
X10352Y9560D1*
X10371Y9503D1*
Y9465D1*
X10352Y9407D1*
X10295Y9369D1*
X10199Y9350D1*
X10142D1*
X10046Y9369D1*
X9989Y9407D1*
X9970Y9465D1*
Y9503D1*
X10046Y9369D2*
X10295Y9599D1*
X9970Y9111D2*
X9989Y9169D1*
X10046Y9207D1*
X10142Y9226D1*
X10199D1*
X10295Y9207D1*
X10352Y9169D1*
X10371Y9111D1*
Y9073D1*
X10352Y9016D1*
X10295Y8978D1*
X10199Y8958D1*
X10142D1*
X10046Y8978D1*
X9989Y9016D1*
X9970Y9073D1*
Y9111D1*
X10046Y8978D2*
X10295Y9207D1*
X10103Y8835D2*
X10371D1*
X10180D2*
X10122Y8777D1*
X10103Y8739D1*
Y8682D1*
X10122Y8643D1*
X10180Y8624D1*
X10371D1*
X10180D2*
X10122Y8567D1*
X10103Y8528D1*
Y8471D1*
X10122Y8433D1*
X10180Y8414D1*
X10371D1*
Y7984D2*
X9969Y8137D1*
X10371Y8290D1*
X10237Y8233D2*
Y8041D1*
X9969Y7860D2*
X10371D1*
X10180D2*
X10122Y7803D1*
X10103Y7764D1*
Y7707D1*
X10122Y7669D1*
X10180Y7650D1*
X10371D1*
X9970Y7507D2*
X10237D1*
X10333D2*
X10352Y7526D1*
X10371Y7507D1*
X10352Y7488D1*
X10333Y7507D1*
M02*
