G04 DipTrace 2.4.0.2*
%INBottom.gbr*%
%MOIN*%
%ADD10C,0.0098*%
%ADD13C,0.0197*%
%ADD16C,0.0315*%
%ADD18C,0.0394*%
%ADD20C,0.025*%
%ADD27R,0.0906X0.0197*%
%ADD28R,0.0984X0.0787*%
%ADD31C,0.0472*%
%ADD32R,0.0472X0.0472*%
%ADD34C,0.0591*%
%ADD35C,0.0472*%
%FSLAX44Y44*%
G04*
G70*
G90*
G75*
G01*
%LNBottom*%
%LPD*%
X12992Y32283D2*
D13*
X10728D1*
X10531Y32087D1*
X9843D1*
X4921D1*
X7776Y29626D2*
X8071Y29331D1*
X8760D1*
Y29823D1*
X9843D1*
Y31693D1*
X11319Y30217D2*
X10925Y29823D1*
X9843D1*
X11909Y29626D2*
X11614Y29331D1*
X10925D1*
Y29823D1*
X11319Y27264D2*
X10925Y27657D1*
Y29331D1*
X8661Y26969D2*
X9055Y27362D1*
Y27657D1*
X10925D1*
X9055D2*
X8760D1*
Y29331D1*
X9843Y31693D2*
Y32087D1*
X18343Y5543D2*
D16*
Y4543D1*
Y3543D1*
Y2543D1*
Y2201D1*
X16929Y787D1*
X2756D1*
X2343Y1201D1*
Y2543D1*
Y3543D1*
Y4543D1*
Y5543D1*
X1378Y31496D2*
X3642Y33760D1*
X8071D1*
X9006Y32825D1*
X9350Y32480D1*
X10335D1*
X11614Y33760D1*
X16535D1*
X17421Y32874D1*
X8661Y32480D2*
X9006Y32825D1*
X15157Y23130D2*
D10*
Y24606D1*
X11909Y27854D1*
X15157Y21752D2*
Y6791D1*
X14862Y6496D1*
Y2067D1*
X14343Y1547D1*
Y1543D1*
X15551Y23130D2*
Y24803D1*
X12205Y28150D1*
X15551Y21752D2*
Y6791D1*
X15846Y6496D1*
Y2067D1*
X15343Y1563D1*
Y1543D1*
X15945Y23130D2*
Y25000D1*
X12500Y28445D1*
X15945Y21752D2*
Y7087D1*
X16831Y6201D1*
Y2067D1*
X16343Y1579D1*
Y1543D1*
X14370Y30217D2*
X14272D1*
X12795Y28740D1*
X13681Y30217D2*
X12500Y29035D1*
X7283Y23130D2*
Y27362D1*
X7776Y27854D1*
X3051Y10335D2*
Y6693D1*
X2854Y6496D1*
Y2031D1*
X3343Y1543D1*
X7283Y21752D2*
Y10827D1*
X6791Y10335D1*
X4626D1*
X7677Y23130D2*
Y27165D1*
X8071Y27559D1*
X3445Y9941D2*
Y6890D1*
X3839Y6496D1*
Y2047D1*
X4343Y1543D1*
X7677Y21752D2*
Y10630D1*
X6988Y9941D1*
X4921D1*
X7480Y28150D2*
X6890Y27559D1*
Y25492D1*
X4528Y23130D1*
X5343Y1543D2*
X4823Y2063D1*
Y6299D1*
X5020Y6496D1*
Y7776D2*
X4232Y8563D1*
Y21161D1*
X4528Y21457D1*
Y21752D1*
X7185Y28445D2*
X6496Y27756D1*
Y25591D1*
X4134Y23228D1*
Y23130D1*
X6343Y1543D2*
X5807Y2079D1*
Y6299D1*
X3839Y8268D1*
Y21457D1*
X4134Y21752D1*
X8071Y23130D2*
Y25787D1*
X8957Y26673D1*
X8071Y21752D2*
Y7677D1*
X6890Y6496D1*
Y1996D1*
X7343Y1543D1*
X12402Y23130D2*
Y25000D1*
X10728Y26673D1*
X12402Y21752D2*
Y7677D1*
X7874Y6594D2*
Y2067D1*
X8343Y1598D1*
Y1543D1*
X8465Y23130D2*
Y25000D1*
X9547Y26083D1*
X8465Y21752D2*
Y6791D1*
X8858Y6398D1*
Y2028D1*
X9343Y1543D1*
X11024Y30512D2*
X11811Y31299D1*
X14961D1*
X15157Y31102D1*
Y26378D1*
X16339Y25197D1*
Y23130D1*
Y21752D2*
Y7283D1*
X10827Y6201D2*
Y1969D1*
X10343Y1484D1*
Y1543D1*
X11220Y23130D2*
Y24409D1*
X9843Y25787D1*
X11220Y21752D2*
Y6988D1*
X11811Y6398D1*
Y2012D1*
X11343Y1543D1*
X11614Y23130D2*
Y24606D1*
X10138Y26083D1*
X11614Y21752D2*
Y7283D1*
X12795Y6102D1*
Y2067D1*
X12343Y1614D1*
Y1543D1*
X12008Y23130D2*
Y24803D1*
X10433Y26378D1*
X12008Y21752D2*
Y7579D1*
X13878Y5709D1*
Y2067D1*
X13354Y1543D1*
X13343D1*
X15748Y32087D2*
X14961D1*
X14469Y31594D1*
X11516D1*
X10728Y30807D1*
X3425Y29921D2*
D16*
X4724D1*
X17343Y2543D2*
Y3543D1*
Y4543D1*
Y5543D1*
X1343D2*
Y4543D1*
Y3543D1*
Y2543D1*
X1280Y28839D2*
D10*
X689D1*
X492Y28642D1*
Y27854D1*
X689Y27657D1*
X2559D1*
X2264Y30315D2*
X1969D1*
X1772Y30118D1*
Y29528D1*
X16201Y30157D2*
D13*
X16791D1*
X17224Y29724D1*
X14862Y32480D2*
D10*
X14272Y31890D1*
X10827D1*
X10630Y31693D1*
X9154D2*
Y31791D1*
X6890D1*
X5315Y30217D1*
Y27165D1*
X4429Y26280D1*
Y24803D1*
X4232Y24606D1*
X3278D1*
X16201Y29528D2*
X15650D1*
X15453Y29331D1*
Y28642D1*
X15650Y28445D1*
X16732D1*
X17224Y27953D1*
X16201Y29843D2*
X15630D1*
X15453Y30020D1*
Y30413D1*
X15650Y30610D1*
X16732D1*
X17224Y31102D1*
X18602Y24606D2*
Y23130D1*
X18209Y22736D1*
X2559D1*
X1083Y21260D1*
Y20669D1*
X14764Y18996D2*
X12795D1*
X10827D2*
X8858D1*
X6890D2*
X4724D1*
X3346D2*
X1083Y16732D1*
X18602Y20669D2*
Y20374D1*
X17224Y18996D1*
X16732D1*
X18602Y16732D2*
Y16437D1*
X17224Y15059D1*
X16732D1*
X14764D2*
X12795D1*
X10827D2*
X8858D1*
X6890D2*
X4724D1*
X3346D2*
X1083Y12795D1*
X18602D2*
Y12500D1*
X17224Y11122D1*
X16732D1*
X14764D2*
X12795D1*
X10827D2*
X8858D1*
X6890D2*
X4724D1*
X3346D2*
X1083Y8858D1*
X9252Y31102D2*
X7972D1*
X7579Y31496D1*
X7185D1*
X5709Y30020D1*
Y27067D1*
X4823Y26181D1*
X8957Y30807D2*
X7677D1*
X7382Y31102D1*
X3425Y29134D2*
D16*
X4724D1*
X3425D2*
X1575D1*
X394Y30315D1*
Y31398D1*
X4035Y35039D1*
X16240D1*
X17421Y33858D1*
X2854Y22244D2*
D18*
X6791D1*
X10728D1*
X14665D1*
X18602D1*
X15059Y33169D2*
X16142D1*
X17126Y32185D1*
X18898D1*
X19252Y31831D1*
Y22894D1*
X18602Y22244D1*
D35*
X17421Y33858D3*
X17224Y29724D3*
X1378Y31496D3*
D16*
X1772Y29528D3*
D35*
X17421Y32874D3*
X15059Y33169D3*
X18602Y22244D3*
X14665D3*
X10728D3*
D16*
X2264Y30315D3*
X1280Y28839D3*
X2559Y27657D3*
D35*
X4724Y29134D3*
X6791Y22244D3*
X4724Y29921D3*
X2854Y22244D3*
D18*
X12992Y32283D3*
D16*
X4823Y26181D3*
D18*
X4921Y32087D3*
D16*
X9843Y31693D3*
X12402Y23130D3*
X12795Y28740D3*
X14370Y30217D3*
X14862Y32480D3*
X8563Y34449D3*
X9252Y31102D3*
X10630Y31693D3*
X8957Y30807D3*
X10728D3*
X9154Y31693D3*
X11024Y30512D3*
X12500Y29035D3*
Y28445D3*
X7382Y31102D3*
X12205Y28150D3*
X11909Y29626D3*
Y27854D3*
X11614Y29921D3*
Y27559D3*
X12008Y23130D3*
X11614D3*
X11220D3*
X9843Y25787D3*
X8957Y26673D3*
X9547Y26083D3*
X8661Y26969D3*
X10138Y26083D3*
X13681Y30217D3*
X7185Y28445D3*
X7480Y29331D3*
Y28150D3*
X7776Y29626D3*
Y27854D3*
X12992Y30610D3*
X8071Y27559D3*
X14665Y26969D3*
X6102Y28839D3*
X9252Y29331D3*
X10433D3*
X9252Y28150D3*
X10433D3*
X9843Y29331D3*
X10433Y28740D3*
X9843Y28150D3*
X9252Y28740D3*
X11319Y30217D3*
Y27264D3*
X8661Y32480D3*
X17224Y27953D3*
Y31102D3*
X15748Y32087D3*
X12402Y21752D3*
X10433Y26378D3*
X10728Y26673D3*
X12008Y21752D3*
X8465Y23130D3*
X8071D3*
X7677D3*
X7283D3*
X4528D3*
X4134D3*
X16339D3*
X15945D3*
X15551D3*
X11614Y21752D3*
X11220D3*
X8465D3*
X8071D3*
X7677D3*
X7283D3*
X4528D3*
X4134D3*
X16339D3*
X15945D3*
X15551D3*
X15157D3*
Y23130D3*
X11122Y34449D3*
X12894D3*
X14961D3*
X6004Y26476D3*
X2657Y31496D3*
X15846Y26969D3*
X18504D3*
Y30413D3*
Y28642D3*
X1772Y20472D3*
X5315Y31299D3*
X3346Y28543D3*
X2264Y24606D3*
X5512Y25394D3*
X13976Y24606D3*
X17913D3*
X17520Y20866D3*
Y16732D3*
Y12795D3*
Y20472D3*
X1772Y16339D3*
X17520Y8858D3*
X1772Y20866D3*
Y16732D3*
X17520Y16339D3*
X1772Y12402D3*
Y12795D3*
Y8858D3*
X1870Y24606D3*
X17520Y12402D3*
X1772Y8465D3*
X5118Y24902D3*
X13583Y24606D3*
X17520D3*
Y8465D3*
X6201Y32579D3*
X5020Y7776D3*
X4626Y10335D3*
X3051D3*
X4921Y9941D3*
X3445D3*
X5020Y6496D3*
X12402Y7677D3*
X7874Y6594D3*
X16339Y7283D3*
X10827Y6201D3*
X18602Y24606D3*
X1083Y20669D3*
X18602D3*
X1083Y16732D3*
X14764Y18996D3*
X16732D3*
X10827D3*
X12795D3*
X8858D3*
X6890D3*
X4724D3*
X3346D3*
X18602Y19587D3*
X16732Y15059D3*
X14764D3*
X12795D3*
X10827D3*
X8858D3*
X6890D3*
X4724D3*
X3346D3*
X16732Y11122D3*
X14764D3*
X12795D3*
X10827D3*
X8858D3*
X6890D3*
X4724D3*
X3346D3*
X18602Y16732D3*
Y12795D3*
X1083D3*
Y8858D3*
X5709Y20669D3*
X9646D3*
X13583D3*
X5709Y16732D3*
X9646D3*
X13583D3*
X5709Y12795D3*
X9646D3*
X13583D3*
X5709Y8858D3*
X9646D3*
X13583D3*
X9843Y24606D3*
X5906Y23819D3*
X4035Y25394D3*
X16535Y31890D3*
X11516Y32776D3*
X787Y32874D3*
X17717Y34449D3*
X1431Y34819D2*
D20*
X3209D1*
X17064D2*
X18252D1*
X1080Y34571D2*
X2959D1*
X4173D2*
X5897D1*
X7814D2*
X9178D1*
X10505D2*
X16104D1*
X17314D2*
X18604D1*
X837Y34322D2*
X2713D1*
X3923D2*
X5787D1*
X7814D2*
X8924D1*
X10759D2*
X16354D1*
X17603D2*
X18846D1*
X669Y34073D2*
X2463D1*
X8361D2*
X8787D1*
X10900D2*
X11323D1*
X17884D2*
X19018D1*
X544Y33824D2*
X2213D1*
X8611D2*
X8721D1*
X10966D2*
X11071D1*
X17935D2*
X19139D1*
X462Y33576D2*
X1967D1*
X17845D2*
X19221D1*
X412Y33327D2*
X1717D1*
X3814D2*
X4791D1*
X7810D2*
X7898D1*
X11787D2*
X14573D1*
X17630D2*
X19272D1*
X392Y33078D2*
X1467D1*
X3564D2*
X4819D1*
X7779D2*
X8147D1*
X11537D2*
X14553D1*
X17892D2*
X19291D1*
X392Y32830D2*
X1221D1*
X3318D2*
X5041D1*
X5556D2*
X6041D1*
X6556D2*
X7041D1*
X7556D2*
X8397D1*
X11291D2*
X14623D1*
X17935D2*
X19295D1*
X392Y32581D2*
X971D1*
X3068D2*
X8237D1*
X13353D2*
X14440D1*
X15287D2*
X16069D1*
X19134D2*
X19295D1*
X392Y32332D2*
X721D1*
X2818D2*
X4518D1*
X13462D2*
X14260D1*
X16103D2*
X16319D1*
X392Y32084D2*
X478D1*
X2572D2*
X4448D1*
X16185D2*
X16565D1*
X2322Y31835D2*
X4522D1*
X16099D2*
X16819D1*
X2072Y31586D2*
X6233D1*
X15080D2*
X18776D1*
X2271Y31338D2*
X5983D1*
X15376D2*
X16862D1*
X17587D2*
X18776D1*
X2326Y31089D2*
X5737D1*
X15486D2*
X16760D1*
X17658D2*
X18776D1*
X2326Y30840D2*
X5487D1*
X11806D2*
X14830D1*
X17564D2*
X18776D1*
X2591Y30592D2*
X5237D1*
X6732D2*
X7440D1*
X9330D2*
X9467D1*
X11556D2*
X13491D1*
X13873D2*
X14178D1*
X14560D2*
X14830D1*
X17642D2*
X18776D1*
X2697Y30343D2*
X5014D1*
X6486D2*
X9467D1*
X11736D2*
X13264D1*
X17689D2*
X18776D1*
X2634Y30094D2*
X4987D1*
X6236D2*
X8510D1*
X11736D2*
X13108D1*
X17572D2*
X18776D1*
X2099Y29845D2*
X4987D1*
X6037D2*
X7405D1*
X8146D2*
X8385D1*
X12283D2*
X12858D1*
X14572D2*
X14830D1*
X17724D2*
X18776D1*
X2201Y29597D2*
X4541D1*
X4908D2*
X4985D1*
X6037D2*
X7342D1*
X12345D2*
X12608D1*
X14103D2*
X14830D1*
X17720D2*
X18776D1*
X6037Y29348D2*
X7448D1*
X9134D2*
X10549D1*
X13857D2*
X14830D1*
X17560D2*
X18776D1*
X6037Y29099D2*
X7780D1*
X9134D2*
X10549D1*
X11904D2*
X12072D1*
X13607D2*
X14830D1*
X16931D2*
X17147D1*
X17303D2*
X18776D1*
X6037Y28851D2*
X7100D1*
X7274D2*
X8385D1*
X9134D2*
X10549D1*
X11302D2*
X12108D1*
X13357D2*
X14830D1*
X15779D2*
X16799D1*
X17646D2*
X18776D1*
X2306Y28602D2*
X4987D1*
X6037D2*
X6780D1*
X7587D2*
X8385D1*
X9134D2*
X10549D1*
X11302D2*
X12096D1*
X13209D2*
X14830D1*
X17685D2*
X18776D1*
X2326Y28353D2*
X4987D1*
X6037D2*
X6643D1*
X7861D2*
X8385D1*
X9134D2*
X10549D1*
X11302D2*
X11823D1*
X13044D2*
X14830D1*
X17564D2*
X18776D1*
X2326Y28105D2*
X4987D1*
X6037D2*
X6393D1*
X8126D2*
X8385D1*
X9134D2*
X10549D1*
X11302D2*
X11561D1*
X13294D2*
X14830D1*
X15486D2*
X16619D1*
X17630D2*
X18776D1*
X2943Y27856D2*
X4987D1*
X6037D2*
X6183D1*
X11302D2*
X11475D1*
X13541D2*
X14830D1*
X15486D2*
X16799D1*
X17650D2*
X18776D1*
X2990Y27607D2*
X4987D1*
X6037D2*
X6169D1*
X13791D2*
X14830D1*
X15486D2*
X16979D1*
X17470D2*
X18776D1*
X392Y27359D2*
X619D1*
X2865D2*
X4987D1*
X6037D2*
X6169D1*
X11744D2*
X11951D1*
X14041D2*
X14830D1*
X15486D2*
X18776D1*
X392Y27110D2*
X4807D1*
X6037D2*
X6169D1*
X9326D2*
X10912D1*
X11724D2*
X12201D1*
X14287D2*
X14830D1*
X15486D2*
X18776D1*
X392Y26861D2*
X4557D1*
X5955D2*
X6170D1*
X9345D2*
X10338D1*
X11119D2*
X11213D1*
X11423D2*
X12451D1*
X14537D2*
X14830D1*
X15486D2*
X18776D1*
X392Y26613D2*
X4311D1*
X5709D2*
X6170D1*
X9388D2*
X10073D1*
X11240D2*
X12698D1*
X15486D2*
X18776D1*
X392Y26364D2*
X4116D1*
X5459D2*
X6170D1*
X11490D2*
X12948D1*
X15623D2*
X18776D1*
X392Y26115D2*
X4104D1*
X5251D2*
X6170D1*
X8849D2*
X9112D1*
X11740D2*
X13198D1*
X15873D2*
X18776D1*
X392Y25866D2*
X563D1*
X1544D2*
X2787D1*
X3771D2*
X4104D1*
X5111D2*
X6170D1*
X8603D2*
X8877D1*
X11986D2*
X13444D1*
X16123D2*
X18776D1*
X392Y25618D2*
X548D1*
X1556D2*
X2772D1*
X3783D2*
X4104D1*
X4755D2*
X6073D1*
X8400D2*
X8631D1*
X12236D2*
X13694D1*
X16369D2*
X18776D1*
X392Y25369D2*
X548D1*
X1556D2*
X1756D1*
X2572D2*
X2776D1*
X3779D2*
X4104D1*
X4755D2*
X5823D1*
X9287D2*
X9807D1*
X12486D2*
X13944D1*
X16611D2*
X18776D1*
X392Y25120D2*
X1729D1*
X2603D2*
X4104D1*
X4755D2*
X5573D1*
X9037D2*
X10057D1*
X12705D2*
X14190D1*
X16666D2*
X18776D1*
X392Y24872D2*
X555D1*
X1548D2*
X1873D1*
X2459D2*
X2784D1*
X4755D2*
X5326D1*
X6720D2*
X6955D1*
X8791D2*
X10307D1*
X12728D2*
X14440D1*
X16666D2*
X18264D1*
X392Y24623D2*
X548D1*
X1556D2*
X2772D1*
X4697D2*
X5076D1*
X6474D2*
X6955D1*
X8791D2*
X10553D1*
X12728D2*
X14690D1*
X16666D2*
X18166D1*
X392Y24374D2*
X548D1*
X1556D2*
X1920D1*
X2408D2*
X2776D1*
X4451D2*
X4826D1*
X6224D2*
X6955D1*
X8791D2*
X10803D1*
X12728D2*
X14830D1*
X16666D2*
X18241D1*
X392Y24126D2*
X1733D1*
X2595D2*
X4580D1*
X5974D2*
X6955D1*
X8791D2*
X10893D1*
X12728D2*
X14830D1*
X16666D2*
X18276D1*
X392Y23877D2*
X555D1*
X1552D2*
X1744D1*
X2587D2*
X4330D1*
X5728D2*
X6955D1*
X8791D2*
X10893D1*
X12728D2*
X14830D1*
X16666D2*
X18276D1*
X392Y23628D2*
X548D1*
X1556D2*
X1979D1*
X2353D2*
X4080D1*
X5478D2*
X6955D1*
X8791D2*
X10893D1*
X12728D2*
X14830D1*
X16666D2*
X18276D1*
X392Y23380D2*
X555D1*
X1552D2*
X3784D1*
X5228D2*
X6932D1*
X8814D2*
X10869D1*
X12751D2*
X14807D1*
X16689D2*
X18276D1*
X392Y23131D2*
X3698D1*
X4982D2*
X6850D1*
X8900D2*
X10784D1*
X12837D2*
X14721D1*
X16775D2*
X18151D1*
X392Y22882D2*
X2252D1*
X392Y22634D2*
X2002D1*
X392Y22385D2*
X1756D1*
X392Y22136D2*
X1506D1*
X19154D2*
X19292D1*
X392Y21887D2*
X1256D1*
X2162D2*
X2494D1*
X18962D2*
X19295D1*
X392Y21639D2*
X1010D1*
X1916D2*
X3573D1*
X4947D2*
X6866D1*
X8884D2*
X10799D1*
X12822D2*
X14737D1*
X16759D2*
X19295D1*
X392Y21390D2*
X784D1*
X1666D2*
X3510D1*
X4849D2*
X6955D1*
X8791D2*
X10893D1*
X12728D2*
X14830D1*
X16666D2*
X19295D1*
X392Y21141D2*
X756D1*
X1416D2*
X3510D1*
X4666D2*
X6955D1*
X8791D2*
X10893D1*
X12728D2*
X14830D1*
X16666D2*
X19295D1*
X392Y20893D2*
X713D1*
X1451D2*
X3510D1*
X4560D2*
X6955D1*
X8791D2*
X10893D1*
X12728D2*
X14830D1*
X16666D2*
X18233D1*
X18970D2*
X19295D1*
X392Y20644D2*
X647D1*
X1517D2*
X3510D1*
X4560D2*
X6955D1*
X8791D2*
X10893D1*
X12728D2*
X14830D1*
X16666D2*
X18166D1*
X19037D2*
X19295D1*
X392Y20395D2*
X752D1*
X1412D2*
X3510D1*
X4560D2*
X6955D1*
X8791D2*
X10893D1*
X12728D2*
X14830D1*
X16666D2*
X18170D1*
X18931D2*
X19295D1*
X392Y20147D2*
X3510D1*
X4560D2*
X6955D1*
X8791D2*
X10893D1*
X12728D2*
X14830D1*
X16666D2*
X17924D1*
X18826D2*
X19295D1*
X392Y19898D2*
X3510D1*
X4560D2*
X6955D1*
X8791D2*
X10893D1*
X12728D2*
X14830D1*
X16666D2*
X17674D1*
X18896D2*
X19295D1*
X392Y19649D2*
X3510D1*
X4560D2*
X6955D1*
X8791D2*
X10893D1*
X12728D2*
X14830D1*
X16666D2*
X17424D1*
X19033D2*
X19295D1*
X392Y19401D2*
X3252D1*
X4821D2*
X6795D1*
X8955D2*
X10733D1*
X12888D2*
X14670D1*
X16826D2*
X17178D1*
X18080D2*
X18212D1*
X18994D2*
X19295D1*
X392Y19152D2*
X2944D1*
X17834D2*
X19295D1*
X392Y18903D2*
X2803D1*
X17584D2*
X19295D1*
X392Y18655D2*
X2553D1*
X4978D2*
X6639D1*
X9111D2*
X10573D1*
X13048D2*
X14510D1*
X16986D2*
X19295D1*
X392Y18406D2*
X2303D1*
X3209D2*
X3510D1*
X4560D2*
X6955D1*
X8791D2*
X10893D1*
X12728D2*
X14830D1*
X16666D2*
X19295D1*
X392Y18157D2*
X2057D1*
X2959D2*
X3510D1*
X4560D2*
X6955D1*
X8791D2*
X10893D1*
X12728D2*
X14830D1*
X16666D2*
X19295D1*
X392Y17908D2*
X1807D1*
X2712D2*
X3510D1*
X4560D2*
X6955D1*
X8791D2*
X10893D1*
X12728D2*
X14830D1*
X16666D2*
X19295D1*
X392Y17660D2*
X1557D1*
X2462D2*
X3510D1*
X4560D2*
X6955D1*
X8791D2*
X10893D1*
X12728D2*
X14830D1*
X16666D2*
X19295D1*
X392Y17411D2*
X1311D1*
X2212D2*
X3510D1*
X4560D2*
X6955D1*
X8791D2*
X10893D1*
X12728D2*
X14830D1*
X16666D2*
X19295D1*
X392Y17162D2*
X1061D1*
X1966D2*
X3510D1*
X4560D2*
X6955D1*
X8791D2*
X10893D1*
X12728D2*
X14830D1*
X16666D2*
X19295D1*
X392Y16914D2*
X690D1*
X1716D2*
X3510D1*
X4560D2*
X6955D1*
X8791D2*
X10893D1*
X12728D2*
X14830D1*
X16666D2*
X18209D1*
X18994D2*
X19295D1*
X392Y16665D2*
X655D1*
X1513D2*
X3510D1*
X4560D2*
X6955D1*
X8791D2*
X10893D1*
X12728D2*
X14830D1*
X16666D2*
X18174D1*
X19033D2*
X19295D1*
X392Y16416D2*
X795D1*
X1369D2*
X3510D1*
X4560D2*
X6955D1*
X8791D2*
X10893D1*
X12728D2*
X14830D1*
X16666D2*
X18131D1*
X18927D2*
X19295D1*
X392Y16168D2*
X3510D1*
X4560D2*
X6955D1*
X8791D2*
X10893D1*
X12728D2*
X14830D1*
X16666D2*
X17881D1*
X18787D2*
X19295D1*
X392Y15919D2*
X3510D1*
X4560D2*
X6955D1*
X8791D2*
X10893D1*
X12728D2*
X14830D1*
X16666D2*
X17631D1*
X18537D2*
X19295D1*
X392Y15670D2*
X3510D1*
X4560D2*
X6955D1*
X8791D2*
X10893D1*
X12728D2*
X14830D1*
X16666D2*
X17385D1*
X18287D2*
X19295D1*
X392Y15422D2*
X3127D1*
X4943D2*
X6674D1*
X9076D2*
X10608D1*
X13013D2*
X14545D1*
X16951D2*
X17135D1*
X18041D2*
X19295D1*
X392Y15173D2*
X2928D1*
X17791D2*
X19295D1*
X392Y14924D2*
X2760D1*
X17541D2*
X19295D1*
X392Y14676D2*
X2510D1*
X4896D2*
X6717D1*
X9029D2*
X10655D1*
X12966D2*
X14592D1*
X16904D2*
X19295D1*
X392Y14427D2*
X2260D1*
X3166D2*
X3510D1*
X4560D2*
X6955D1*
X8791D2*
X10893D1*
X12728D2*
X14830D1*
X16666D2*
X19295D1*
X392Y14178D2*
X2014D1*
X2919D2*
X3510D1*
X4560D2*
X6955D1*
X8791D2*
X10893D1*
X12728D2*
X14830D1*
X16666D2*
X19295D1*
X392Y13929D2*
X1764D1*
X2669D2*
X3510D1*
X4560D2*
X6955D1*
X8791D2*
X10893D1*
X12728D2*
X14830D1*
X16666D2*
X19295D1*
X392Y13681D2*
X1514D1*
X2419D2*
X3510D1*
X4560D2*
X6955D1*
X8791D2*
X10893D1*
X12728D2*
X14830D1*
X16666D2*
X19295D1*
X392Y13432D2*
X1268D1*
X2173D2*
X3510D1*
X4560D2*
X6955D1*
X8791D2*
X10893D1*
X12728D2*
X14830D1*
X16666D2*
X19295D1*
X392Y13183D2*
X924D1*
X1923D2*
X3510D1*
X4560D2*
X6955D1*
X8791D2*
X10893D1*
X12728D2*
X14830D1*
X16666D2*
X18444D1*
X18759D2*
X19295D1*
X392Y12935D2*
X670D1*
X1673D2*
X3510D1*
X4560D2*
X6955D1*
X8791D2*
X10893D1*
X12728D2*
X14830D1*
X16666D2*
X18190D1*
X19013D2*
X19295D1*
X392Y12686D2*
X662D1*
X1501D2*
X3510D1*
X4560D2*
X6955D1*
X8791D2*
X10893D1*
X12728D2*
X14830D1*
X16666D2*
X18182D1*
X19025D2*
X19295D1*
X392Y12437D2*
X858D1*
X1310D2*
X3510D1*
X4560D2*
X6955D1*
X8791D2*
X10893D1*
X12728D2*
X14830D1*
X16666D2*
X18088D1*
X18923D2*
X19295D1*
X392Y12189D2*
X3510D1*
X4560D2*
X6955D1*
X8791D2*
X10893D1*
X12728D2*
X14830D1*
X16666D2*
X17838D1*
X18744D2*
X19295D1*
X392Y11940D2*
X3510D1*
X4560D2*
X6955D1*
X8791D2*
X10893D1*
X12728D2*
X14830D1*
X16666D2*
X17588D1*
X18494D2*
X19295D1*
X392Y11691D2*
X3510D1*
X4560D2*
X6955D1*
X8791D2*
X10893D1*
X12728D2*
X14830D1*
X16666D2*
X17342D1*
X18248D2*
X19295D1*
X392Y11443D2*
X3065D1*
X5005D2*
X6608D1*
X9138D2*
X10545D1*
X13076D2*
X14483D1*
X17013D2*
X17092D1*
X17998D2*
X19295D1*
X392Y11194D2*
X2916D1*
X17748D2*
X19295D1*
X392Y10945D2*
X2717D1*
X17501D2*
X19295D1*
X392Y10697D2*
X2467D1*
X8791D2*
X10893D1*
X12728D2*
X14830D1*
X16666D2*
X19295D1*
X392Y10448D2*
X2221D1*
X8791D2*
X10893D1*
X12728D2*
X14830D1*
X16666D2*
X19295D1*
X392Y10199D2*
X1971D1*
X8791D2*
X10893D1*
X12728D2*
X14830D1*
X16666D2*
X19295D1*
X392Y9950D2*
X1721D1*
X2626D2*
X2725D1*
X7451D2*
X7744D1*
X8791D2*
X10893D1*
X12728D2*
X14830D1*
X16666D2*
X19295D1*
X392Y9702D2*
X1475D1*
X2380D2*
X2725D1*
X7197D2*
X7744D1*
X8791D2*
X10893D1*
X12728D2*
X14830D1*
X16666D2*
X19295D1*
X392Y9453D2*
X1225D1*
X2130D2*
X2725D1*
X4560D2*
X7744D1*
X8791D2*
X10893D1*
X12728D2*
X14830D1*
X16666D2*
X19295D1*
X392Y9204D2*
X838D1*
X1880D2*
X2725D1*
X4560D2*
X7744D1*
X8791D2*
X10893D1*
X12728D2*
X14830D1*
X16666D2*
X19295D1*
X392Y8956D2*
X659D1*
X1634D2*
X2725D1*
X4560D2*
X7744D1*
X8791D2*
X10893D1*
X12728D2*
X14830D1*
X16666D2*
X19295D1*
X392Y8707D2*
X678D1*
X1490D2*
X2725D1*
X4560D2*
X7744D1*
X8791D2*
X10893D1*
X12728D2*
X14830D1*
X16666D2*
X19295D1*
X392Y8458D2*
X967D1*
X1199D2*
X2725D1*
X4791D2*
X7744D1*
X8791D2*
X10893D1*
X12728D2*
X14830D1*
X16666D2*
X19295D1*
X392Y8210D2*
X2725D1*
X5037D2*
X7744D1*
X8791D2*
X10893D1*
X12728D2*
X14830D1*
X16666D2*
X19295D1*
X392Y7961D2*
X2725D1*
X5412D2*
X7744D1*
X8791D2*
X10893D1*
X12728D2*
X14830D1*
X16666D2*
X19295D1*
X392Y7712D2*
X2725D1*
X5451D2*
X7655D1*
X8791D2*
X10893D1*
X12837D2*
X14830D1*
X16666D2*
X19295D1*
X392Y7464D2*
X2725D1*
X5310D2*
X7405D1*
X8791D2*
X10893D1*
X12779D2*
X14830D1*
X16732D2*
X19295D1*
X392Y7215D2*
X2725D1*
X5345D2*
X7155D1*
X8791D2*
X10893D1*
X12826D2*
X14830D1*
X16767D2*
X19295D1*
X392Y6966D2*
X2725D1*
X5591D2*
X6909D1*
X8791D2*
X10893D1*
X13072D2*
X14830D1*
X16623D2*
X19295D1*
X392Y6718D2*
X2623D1*
X5841D2*
X6659D1*
X8990D2*
X11037D1*
X13322D2*
X14631D1*
X16767D2*
X19295D1*
X392Y6469D2*
X2526D1*
X6084D2*
X6561D1*
X9177D2*
X10491D1*
X11162D2*
X11287D1*
X13572D2*
X14534D1*
X17013D2*
X19295D1*
X392Y6220D2*
X2526D1*
X6134D2*
X6561D1*
X9185D2*
X10393D1*
X11263D2*
X11483D1*
X13818D2*
X14534D1*
X17158D2*
X19295D1*
X392Y5971D2*
X1975D1*
X9709D2*
X9975D1*
X17158D2*
X17975D1*
X18709D2*
X19295D1*
X392Y5723D2*
X1799D1*
X17158D2*
X17799D1*
X18884D2*
X19295D1*
X392Y5474D2*
X1772D1*
X17158D2*
X17772D1*
X18912D2*
X19295D1*
X392Y5225D2*
X1869D1*
X17158D2*
X17869D1*
X18814D2*
X19295D1*
X392Y4977D2*
X1909D1*
X9705D2*
X9983D1*
X17158D2*
X17909D1*
X18779D2*
X19295D1*
X392Y4728D2*
X1803D1*
X17158D2*
X17803D1*
X18884D2*
X19295D1*
X392Y4479D2*
X1772D1*
X17158D2*
X17772D1*
X18912D2*
X19295D1*
X392Y4231D2*
X1866D1*
X17158D2*
X17866D1*
X18818D2*
X19295D1*
X392Y3982D2*
X1909D1*
X9697D2*
X9991D1*
X17158D2*
X17909D1*
X18779D2*
X19295D1*
X392Y3733D2*
X1803D1*
X17158D2*
X17803D1*
X18880D2*
X19295D1*
X392Y3485D2*
X1772D1*
X17158D2*
X17772D1*
X18912D2*
X19295D1*
X392Y3236D2*
X1862D1*
X17158D2*
X17862D1*
X18822D2*
X19295D1*
X392Y2987D2*
X1909D1*
X9689D2*
X9994D1*
X17158D2*
X17909D1*
X18779D2*
X19295D1*
X392Y2739D2*
X1807D1*
X17158D2*
X17807D1*
X18880D2*
X19295D1*
X390Y2490D2*
X1772D1*
X17158D2*
X17772D1*
X18912D2*
X19295D1*
X400Y2241D2*
X1862D1*
X17158D2*
X17776D1*
X18826D2*
X19284D1*
X431Y1992D2*
X1909D1*
X9681D2*
X10002D1*
X17150D2*
X17530D1*
X18720D2*
X19256D1*
X490Y1744D2*
X1909D1*
X16959D2*
X17280D1*
X18490D2*
X19194D1*
X591Y1495D2*
X1909D1*
X16916D2*
X17030D1*
X18244D2*
X19092D1*
X736Y1246D2*
X1909D1*
X17994D2*
X18948D1*
X935Y998D2*
X1959D1*
X17744D2*
X18748D1*
X1212Y749D2*
X2190D1*
X17498D2*
X18471D1*
X1681Y500D2*
X2436D1*
X17248D2*
X18002D1*
X16907Y29352D2*
X16903Y29176D1*
X16907Y28966D1*
X17027Y29056D1*
X17145Y29095D1*
X17270Y29100D1*
X17391Y29070D1*
X17498Y29007D1*
X17584Y28917D1*
X17641Y28806D1*
X17666Y28661D1*
X17648Y28538D1*
X17597Y28424D1*
X17516Y28330D1*
X17454Y28289D1*
X17510Y28248D1*
X17585Y28149D1*
X17627Y28032D1*
X17635Y27953D1*
X17616Y27830D1*
X17561Y27718D1*
X17475Y27628D1*
X17366Y27567D1*
X17244Y27543D1*
X17121Y27556D1*
X17006Y27605D1*
X16912Y27686D1*
X16846Y27792D1*
X16817Y27932D1*
X16605Y28145D1*
X15650Y28143D1*
X15525Y28170D1*
X15493Y28187D1*
X15460Y28102D1*
Y26505D1*
X16552Y25411D1*
X16621Y25303D1*
X16641Y25197D1*
Y23404D1*
X16699Y23326D1*
X16741Y23209D1*
X16749Y23130D1*
X16736Y23041D1*
X17809Y23039D1*
X18086D1*
X18301Y23257D1*
X18300Y24329D1*
X18224Y24446D1*
X18194Y24566D1*
X18201Y24691D1*
X18244Y24807D1*
X18321Y24905D1*
X18424Y24976D1*
X18543Y25013D1*
X18667Y25012D1*
X18802Y24962D1*
Y31648D1*
X18710Y31736D1*
X17126Y31735D1*
X17003Y31752D1*
X16886Y31805D1*
X16808Y31867D1*
X15954Y32720D1*
X15247Y32719D1*
X15223Y32677D1*
X15265Y32560D1*
X15273Y32480D1*
X15259Y32392D1*
X15472Y32389D1*
X15569Y32456D1*
X15688Y32493D1*
X15813Y32492D1*
X15931Y32454D1*
X16033Y32382D1*
X16109Y32283D1*
X16151Y32166D1*
X16159Y32087D1*
X16140Y31964D1*
X16085Y31852D1*
X15999Y31762D1*
X15890Y31701D1*
X15768Y31677D1*
X15644Y31689D1*
X15530Y31739D1*
X15480Y31782D1*
X15088Y31784D1*
X14901Y31599D1*
X14961Y31602D1*
X15085Y31574D1*
X15174Y31513D1*
X15371Y31316D1*
X15440Y31208D1*
X15460Y31102D1*
X15464Y30849D1*
X15576Y30903D1*
X15775Y30913D1*
X16607D1*
X16814Y31120D1*
X16823Y31187D1*
X16866Y31303D1*
X16943Y31401D1*
X17046Y31472D1*
X17165Y31509D1*
X17289Y31508D1*
X17408Y31470D1*
X17510Y31398D1*
X17585Y31299D1*
X17627Y31182D1*
X17635Y31102D1*
X17616Y30979D1*
X17561Y30868D1*
X17458Y30768D1*
X17498Y30739D1*
X17584Y30649D1*
X17641Y30538D1*
X17666Y30394D1*
X17648Y30270D1*
X17597Y30157D1*
X17544Y30095D1*
X17610Y30026D1*
X17674Y29918D1*
X17708Y29799D1*
X17714Y29724D1*
X17698Y29601D1*
X17651Y29485D1*
X17577Y29385D1*
X17480Y29307D1*
X17366Y29256D1*
X17243Y29235D1*
X17119Y29247D1*
X17002Y29289D1*
X16908Y29353D1*
X16907Y29189D1*
X16832Y28861D2*
X15754D1*
X15755Y28764D1*
X15900Y28747D1*
X16774Y28744D1*
X16798Y28774D1*
X16836Y28863D1*
X2645Y29584D2*
X4331D1*
X4454Y29551D1*
X4433Y29561D1*
X4669Y29620D1*
X4793Y29618D1*
X4913Y29585D1*
X5011Y29529D1*
X5013Y30217D1*
X5040Y30341D1*
X5101Y30430D1*
X6408Y31737D1*
X5206Y31735D1*
X5121Y31683D1*
X5003Y31644D1*
X4878Y31639D1*
X4757Y31668D1*
X4648Y31729D1*
X4561Y31817D1*
X4501Y31927D1*
X4473Y32048D1*
X4480Y32172D1*
X4520Y32290D1*
X4591Y32393D1*
X4688Y32471D1*
X4802Y32521D1*
X4926Y32537D1*
X5049Y32518D1*
X5162Y32466D1*
X5195Y32439D1*
X8253Y32440D1*
X8260Y32565D1*
X8306Y32684D1*
X8281Y32634D1*
X8371Y32771D1*
X8424Y32823D1*
X7901Y33349D1*
X7778D1*
X7789Y33260D1*
X7773Y33136D1*
X7726Y33021D1*
X7652Y32920D1*
X7555Y32842D1*
X7441Y32791D1*
X7318Y32771D1*
X7194Y32782D1*
X7076Y32824D1*
X6974Y32895D1*
X6892Y32989D1*
X6837Y33101D1*
X6811Y33223D1*
X6819Y33351D1*
X6783Y33334D1*
X6789Y33260D1*
X6773Y33136D1*
X6726Y33021D1*
X6652Y32920D1*
X6555Y32842D1*
X6441Y32791D1*
X6318Y32771D1*
X6194Y32782D1*
X6076Y32824D1*
X5974Y32895D1*
X5892Y32989D1*
X5837Y33101D1*
X5811Y33223D1*
X5819Y33351D1*
X5783Y33334D1*
X5789Y33260D1*
X5773Y33136D1*
X5726Y33021D1*
X5652Y32920D1*
X5555Y32842D1*
X5441Y32791D1*
X5318Y32771D1*
X5194Y32782D1*
X5076Y32824D1*
X4974Y32895D1*
X4892Y32989D1*
X4837Y33101D1*
X4811Y33223D1*
X4819Y33351D1*
X3809Y33349D1*
X1896Y31434D1*
X2047D1*
X2167Y31404D1*
X2259Y31320D1*
X2300Y31181D1*
Y30724D1*
X2447Y30682D1*
X2549Y30610D1*
X2624Y30511D1*
X2667Y30394D1*
X2674Y30315D1*
X2655Y30192D1*
X2601Y30080D1*
X2515Y29990D1*
X2406Y29930D1*
X2284Y29905D1*
X2160Y29918D1*
X2071Y29956D1*
X2074Y29802D1*
X2132Y29724D1*
X2175Y29607D1*
X2181Y29545D1*
X2383Y29544D1*
X2475Y29580D1*
X2645Y29584D1*
X8732Y33676D2*
X8740Y33797D1*
X8762Y33920D1*
X8798Y34040D1*
X8847Y34155D1*
X8909Y34263D1*
X8983Y34364D1*
X9067Y34456D1*
X9161Y34538D1*
X9302Y34630D1*
X7791Y34629D1*
X7789Y34167D1*
X8071Y34170D1*
X8194Y34152D1*
X8332Y34077D1*
X8734Y33677D1*
X10385Y34629D2*
X10550Y34518D1*
X10641Y34433D1*
X10723Y34338D1*
X10793Y34235D1*
X10852Y34125D1*
X10897Y34008D1*
X10930Y33888D1*
X10952Y33677D1*
X11324Y34050D1*
X11424Y34124D1*
X11574Y34168D1*
X14114Y34170D1*
X16528D1*
X16068Y34631D1*
X14615Y34629D1*
X10385D1*
X5822Y34173D2*
X5811Y34223D1*
X5818Y34347D1*
X5855Y34466D1*
X5922Y34571D1*
X5982Y34627D1*
X4205Y34629D1*
X3748Y34172D1*
X5818Y34170D1*
X9566Y2040D2*
X9620Y2016D1*
X9720Y1941D1*
X9800Y1846D1*
X9840Y1766D1*
X9935Y1910D1*
X10029Y1993D1*
X10121Y2043D1*
X9986Y2127D1*
X9901Y2218D1*
X9845Y2316D1*
X9768Y2197D1*
X9678Y2110D1*
X9568Y2044D1*
X9843Y2762D2*
X9863Y2809D1*
X9935Y2910D1*
X10029Y2993D1*
X10121Y3043D1*
X9986Y3127D1*
X9901Y3218D1*
X9845Y3316D1*
X9768Y3197D1*
X9678Y3110D1*
X9568Y3044D1*
X9620Y3016D1*
X9720Y2941D1*
X9800Y2846D1*
X9840Y2766D1*
X9566Y4040D2*
X9620Y4016D1*
X9720Y3941D1*
X9800Y3846D1*
X9840Y3766D1*
X9935Y3910D1*
X10029Y3993D1*
X10121Y4043D1*
X9986Y4127D1*
X9901Y4218D1*
X9845Y4316D1*
X9768Y4197D1*
X9678Y4110D1*
X9568Y4044D1*
X9843Y4762D2*
X9863Y4809D1*
X9935Y4910D1*
X10029Y4993D1*
X10121Y5043D1*
X9986Y5127D1*
X9901Y5218D1*
X9845Y5316D1*
X9768Y5197D1*
X9678Y5110D1*
X9568Y5044D1*
X9620Y5016D1*
X9720Y4941D1*
X9800Y4846D1*
X9840Y4766D1*
X6107Y6036D2*
X6259Y6085D1*
X6383Y6090D1*
X6506Y6067D1*
X6588Y6031D1*
X6587Y6496D1*
X6615Y6621D1*
X6676Y6710D1*
X7767Y7801D1*
X7769Y10290D1*
X7202Y9727D1*
X7094Y9659D1*
X6988Y9639D1*
X5195D1*
X5172Y9616D1*
X5063Y9556D1*
X4941Y9531D1*
X4817Y9544D1*
X4703Y9593D1*
X4609Y9675D1*
X4543Y9780D1*
X4535Y9814D1*
Y8689D1*
X5034Y8188D1*
X5203Y8143D1*
X5305Y8071D1*
X5380Y7972D1*
X5423Y7855D1*
X5430Y7776D1*
X5411Y7653D1*
X5356Y7541D1*
X5271Y7451D1*
X5150Y7388D1*
X5820Y6714D1*
X6021Y6513D1*
X6089Y6405D1*
X6109Y6299D1*
Y6037D1*
X9157Y6057D2*
X9259Y6085D1*
X9383Y6090D1*
X9506Y6067D1*
X9620Y6016D1*
X9720Y5941D1*
X9800Y5846D1*
X9840Y5766D1*
X9935Y5910D1*
X10029Y5993D1*
X10138Y6052D1*
X10259Y6085D1*
X10383Y6090D1*
X10433Y6081D1*
X10418Y6161D1*
X10425Y6285D1*
X10469Y6402D1*
X10545Y6500D1*
X10648Y6570D1*
X10767Y6607D1*
X10892Y6606D1*
X11010Y6568D1*
X11112Y6496D1*
X11187Y6397D1*
X11230Y6280D1*
X11237Y6201D1*
X11217Y6074D1*
X11259Y6085D1*
X11383Y6090D1*
X11509Y6065D1*
Y6274D1*
X11007Y6774D1*
X10938Y6882D1*
X10918Y6988D1*
Y10719D1*
X10847Y10712D1*
X10723Y10725D1*
X10609Y10774D1*
X10559Y10817D1*
X9135Y10820D1*
X9000Y10737D1*
X8878Y10712D1*
X8766Y10724D1*
X8767Y6920D1*
X9072Y6611D1*
X9141Y6504D1*
X9161Y6398D1*
Y6058D1*
X14026Y5990D2*
X14138Y6052D1*
X14259Y6085D1*
X14383Y6090D1*
X14506Y6067D1*
X14559Y6043D1*
X14560Y6496D1*
X14588Y6621D1*
X14648Y6710D1*
X14856Y6917D1*
X14855Y10725D1*
X14784Y10712D1*
X14660Y10725D1*
X14546Y10774D1*
X14496Y10817D1*
X13072Y10820D1*
X12937Y10737D1*
X12815Y10712D1*
X12703Y10724D1*
X12704Y7951D1*
X12762Y7874D1*
X12804Y7756D1*
X12812Y7677D1*
X12793Y7554D1*
X12738Y7442D1*
X12655Y7355D1*
X13106Y6909D1*
X14025Y5989D1*
X17895Y33735D2*
X17848Y33619D1*
X17774Y33519D1*
X17677Y33441D1*
X17563Y33390D1*
X17498Y33379D1*
X17718Y33263D1*
X17807Y33175D1*
X17870Y33068D1*
X17905Y32948D1*
X17911Y32874D1*
X17895Y32750D1*
X17850Y32638D1*
X18376Y32635D1*
X18898D1*
X19021Y32618D1*
X19138Y32565D1*
X19216Y32503D1*
X19318Y32401D1*
X19320Y33059D1*
X19294Y33384D1*
X19221Y33690D1*
X19100Y33979D1*
X18936Y34246D1*
X18733Y34484D1*
X18494Y34687D1*
X18227Y34850D1*
X17938Y34970D1*
X17633Y35043D1*
X17306Y35068D1*
X16796Y35065D1*
X17522Y34338D1*
X17610Y34310D1*
X17718Y34247D1*
X17807Y34160D1*
X17870Y34052D1*
X17905Y33933D1*
X17911Y33858D1*
X17895Y33735D1*
X14690Y32854D2*
X14652Y32898D1*
X14596Y33010D1*
X14571Y33132D1*
X14578Y33257D1*
X14607Y33349D1*
X11782D1*
X11068Y32633D1*
X12353Y32635D1*
X12709D1*
X12759Y32668D1*
X12873Y32717D1*
X12997Y32733D1*
X13120Y32715D1*
X13233Y32663D1*
X13328Y32583D1*
X13397Y32479D1*
X13435Y32360D1*
X13442Y32283D1*
X13430Y32195D1*
X14143Y32192D1*
X14453Y32499D1*
X14460Y32565D1*
X14504Y32681D1*
X14581Y32779D1*
X14687Y32851D1*
X14749Y21766D2*
X14684Y21755D1*
X14560Y21766D1*
X14483Y21794D1*
X12810D1*
X12812Y21752D1*
X12793Y21629D1*
X12738Y21517D1*
X12703Y21480D1*
X12704Y19396D1*
X12860Y19401D1*
X12979Y19363D1*
X13071Y19298D1*
X14487D1*
X14585Y19366D1*
X14704Y19402D1*
X14829Y19401D1*
X14855Y19393D1*
Y21475D1*
X14780Y21591D1*
X14749Y21712D1*
X14752Y21763D1*
X10812Y21766D2*
X10747Y21755D1*
X10623Y21766D1*
X10546Y21794D1*
X8873D1*
X8875Y21752D1*
X8856Y21629D1*
X8801Y21517D1*
X8766Y21480D1*
X8767Y19396D1*
X8923Y19401D1*
X9042Y19363D1*
X9134Y19298D1*
X10550D1*
X10648Y19366D1*
X10767Y19402D1*
X10892Y19401D1*
X10918Y19393D1*
Y21476D1*
X10843Y21591D1*
X10812Y21712D1*
X10815Y21763D1*
X6875Y21766D2*
X6810Y21755D1*
X6686Y21766D1*
X6609Y21794D1*
X4936D1*
X4938Y21752D1*
X4919Y21629D1*
X4864Y21517D1*
X4829Y21480D1*
X4802Y21332D1*
X4741Y21243D1*
X4534Y21036D1*
X4535Y19361D1*
X4665Y19402D1*
X4789Y19401D1*
X4908Y19363D1*
X5000Y19298D1*
X6611D1*
X6711Y19366D1*
X6830Y19402D1*
X6955Y19401D1*
X6981Y19393D1*
Y21471D1*
X6906Y21591D1*
X6875Y21712D1*
X6878Y21763D1*
X11514Y29729D2*
X11551Y29827D1*
X11628Y29925D1*
X11731Y29996D1*
X11850Y30032D1*
X11974Y30031D1*
X12093Y29993D1*
X12195Y29921D1*
X12270Y29822D1*
X12312Y29705D1*
X12320Y29626D1*
X12301Y29503D1*
X12246Y29391D1*
X12160Y29301D1*
X12051Y29241D1*
X12017Y29234D1*
X11863Y29082D1*
X11761Y29011D1*
X11614Y28979D1*
X11274D1*
X11277Y27803D1*
X11420Y27660D1*
X11502Y27631D1*
X11604Y27559D1*
X11679Y27460D1*
X11722Y27343D1*
X11729Y27264D1*
X11711Y27141D1*
X11656Y27029D1*
X11570Y26939D1*
X11461Y26879D1*
X11339Y26854D1*
X11215Y26867D1*
X11101Y26916D1*
X11006Y26997D1*
X10941Y27103D1*
X10927Y27160D1*
X10780Y27305D1*
X9406Y27306D1*
X9385Y27240D1*
X9304Y27114D1*
X9196Y27006D1*
X9242Y26969D1*
X9317Y26870D1*
X9360Y26753D1*
X9367Y26673D1*
X9348Y26550D1*
X9293Y26438D1*
X9208Y26348D1*
X9099Y26288D1*
X8973Y26264D1*
X8372Y25661D1*
X8373Y25338D1*
X9137Y26100D1*
X9145Y26167D1*
X9189Y26284D1*
X9266Y26382D1*
X9369Y26452D1*
X9488Y26489D1*
X9612Y26488D1*
X9731Y26450D1*
X9839Y26369D1*
X9959Y26452D1*
X10037Y26476D1*
X10075Y26579D1*
X10152Y26677D1*
X10254Y26748D1*
X10333Y26772D1*
X10370Y26874D1*
X10447Y26972D1*
X10550Y27043D1*
X10669Y27079D1*
X10793D1*
X10912Y27041D1*
X11013Y26969D1*
X11089Y26870D1*
X11131Y26753D1*
X11137Y26691D1*
X12615Y25214D1*
X12684Y25106D1*
X12704Y25000D1*
X12703Y23404D1*
X12762Y23326D1*
X12804Y23209D1*
X12812Y23130D1*
X12799Y23041D1*
X13309Y23039D1*
X14758D1*
X14749Y23090D1*
X14756Y23214D1*
X14799Y23331D1*
X14855Y23401D1*
Y24478D1*
X13264Y26072D1*
X11892Y27445D1*
X11806Y27457D1*
X11691Y27507D1*
X11597Y27588D1*
X11532Y27694D1*
X11501Y27814D1*
X11508Y27939D1*
X11551Y28055D1*
X11628Y28153D1*
X11731Y28224D1*
X11809Y28248D1*
X11847Y28351D1*
X11923Y28449D1*
X12026Y28519D1*
X12104Y28543D1*
X12142Y28646D1*
X12216Y28741D1*
X12188Y28769D1*
X12122Y28875D1*
X12091Y28996D1*
X12098Y29120D1*
X12142Y29236D1*
X12219Y29335D1*
X12321Y29405D1*
X12440Y29442D1*
X12475Y29441D1*
X13272Y30235D1*
X13279Y30301D1*
X13323Y30418D1*
X13400Y30516D1*
X13502Y30586D1*
X13621Y30623D1*
X13746Y30622D1*
X13865Y30584D1*
X13966Y30512D1*
X14025Y30435D1*
X14089Y30516D1*
X14191Y30586D1*
X14310Y30623D1*
X14435Y30622D1*
X14553Y30584D1*
X14655Y30512D1*
X14731Y30413D1*
X14773Y30296D1*
X14781Y30217D1*
X14762Y30093D1*
X14707Y29982D1*
X14621Y29892D1*
X14512Y29831D1*
X14390Y29806D1*
X14301Y29816D1*
X13207Y28724D1*
X13187Y28617D1*
X13132Y28505D1*
X13046Y28415D1*
X12988Y28383D1*
X14854Y26518D1*
X14855Y30976D1*
X14711Y30997D1*
X11933D1*
X11514Y30574D1*
X11604Y30512D1*
X11679Y30413D1*
X11722Y30296D1*
X11729Y30217D1*
X11711Y30093D1*
X11656Y29982D1*
X11570Y29892D1*
X11461Y29831D1*
X11427Y29824D1*
X11283Y29683D1*
X11468Y29682D1*
X11391Y29791D1*
X11283Y29683D1*
X10824Y23041D2*
X10812Y23090D1*
X10819Y23214D1*
X10862Y23331D1*
X10918Y23401D1*
Y24282D1*
X9827Y25375D1*
X9739Y25390D1*
X9624Y25440D1*
X9530Y25521D1*
X9487Y25590D1*
X8769Y24877D1*
X8767Y23410D1*
X8825Y23326D1*
X8867Y23209D1*
X8875Y23130D1*
X8862Y23041D1*
X9934Y23039D1*
X10821D1*
X6887Y23041D2*
X6875Y23090D1*
X6882Y23214D1*
X6925Y23331D1*
X6981Y23401D1*
Y25157D1*
X4935Y23110D1*
X4934Y23039D1*
X6883D1*
X14856Y18601D2*
X14784Y18586D1*
X14660Y18599D1*
X14546Y18648D1*
X14496Y18691D1*
X13072Y18694D1*
X12937Y18611D1*
X12815Y18586D1*
X12703Y18598D1*
X12704Y15459D1*
X12860Y15464D1*
X12979Y15426D1*
X13071Y15361D1*
X14487D1*
X14585Y15429D1*
X14704Y15465D1*
X14829Y15464D1*
X14855Y15456D1*
Y18592D1*
X10919Y18601D2*
X10847Y18586D1*
X10723Y18599D1*
X10609Y18648D1*
X10559Y18691D1*
X9135Y18694D1*
X9000Y18611D1*
X8878Y18586D1*
X8766Y18598D1*
X8767Y15459D1*
X8923Y15464D1*
X9042Y15426D1*
X9134Y15361D1*
X10550D1*
X10648Y15429D1*
X10767Y15465D1*
X10892Y15464D1*
X10918Y15456D1*
Y18594D1*
X6982Y18601D2*
X6910Y18586D1*
X6786Y18599D1*
X6672Y18648D1*
X6622Y18691D1*
X5003Y18694D1*
X4866Y18611D1*
X4744Y18586D1*
X4621Y18599D1*
X4531Y18637D1*
X4535Y17661D1*
Y15423D1*
X4665Y15465D1*
X4789Y15464D1*
X4908Y15426D1*
X5000Y15361D1*
X6611D1*
X6711Y15429D1*
X6830Y15465D1*
X6955Y15464D1*
X6981Y15456D1*
Y18596D1*
X14856Y14664D2*
X14784Y14649D1*
X14660Y14662D1*
X14546Y14711D1*
X14496Y14754D1*
X13072Y14757D1*
X12937Y14674D1*
X12815Y14649D1*
X12703Y14661D1*
X12704Y11521D1*
X12860Y11527D1*
X12979Y11489D1*
X13071Y11424D1*
X14487D1*
X14585Y11492D1*
X14704Y11528D1*
X14829Y11527D1*
X14855Y11519D1*
Y14662D1*
X10919Y14664D2*
X10847Y14649D1*
X10723Y14662D1*
X10609Y14711D1*
X10559Y14754D1*
X9135Y14757D1*
X9000Y14674D1*
X8878Y14649D1*
X8766Y14661D1*
X8767Y11521D1*
X8923Y11527D1*
X9042Y11489D1*
X9134Y11424D1*
X10550D1*
X10648Y11492D1*
X10767Y11528D1*
X10892Y11527D1*
X10918Y11519D1*
Y14656D1*
X6982Y14664D2*
X6910Y14649D1*
X6786Y14662D1*
X6672Y14711D1*
X6622Y14754D1*
X5003Y14757D1*
X4866Y14674D1*
X4744Y14649D1*
X4621Y14662D1*
X4531Y14700D1*
X4535Y14161D1*
Y11486D1*
X4665Y11528D1*
X4789Y11527D1*
X4908Y11489D1*
X5000Y11424D1*
X6611D1*
X6711Y11492D1*
X6830Y11528D1*
X6955Y11527D1*
X6981Y11519D1*
Y14659D1*
X18255Y12585D2*
X18224Y12635D1*
X18194Y12755D1*
X18201Y12880D1*
X18244Y12996D1*
X18321Y13094D1*
X18424Y13165D1*
X18543Y13202D1*
X18667Y13201D1*
X18786Y13163D1*
X18887Y13091D1*
X18963Y12992D1*
X19005Y12875D1*
X19013Y12795D1*
X18994Y12672D1*
X18939Y12560D1*
X18904Y12524D1*
X18877Y12375D1*
X18816Y12286D1*
X17438Y10908D1*
X17330Y10840D1*
X17224Y10820D1*
X17007Y10822D1*
X16983Y10797D1*
X16874Y10737D1*
X16752Y10712D1*
X16640Y10724D1*
Y7557D1*
X16699Y7480D1*
X16741Y7363D1*
X16749Y7283D1*
X16730Y7160D1*
X16675Y7049D1*
X16590Y6958D1*
X16532Y6926D1*
X17044Y6415D1*
X17113Y6307D1*
X17133Y6201D1*
Y2067D1*
X17105Y1942D1*
X17044Y1853D1*
X16870Y1678D1*
X16891Y1543D1*
X16877Y1419D1*
X16835Y1302D1*
X16787Y1226D1*
X17857Y2296D1*
X17839Y2327D1*
X17803Y2446D1*
X17795Y2570D1*
X17815Y2694D1*
X17863Y2809D1*
X17933Y2907D1*
X17932Y3180D1*
X17839Y3327D1*
X17803Y3446D1*
X17795Y3570D1*
X17815Y3694D1*
X17863Y3809D1*
X17933Y3907D1*
X17932Y4180D1*
X17839Y4327D1*
X17803Y4446D1*
X17795Y4570D1*
X17815Y4694D1*
X17863Y4809D1*
X17933Y4907D1*
X17932Y5180D1*
X17839Y5327D1*
X17803Y5446D1*
X17795Y5570D1*
X17815Y5694D1*
X17863Y5809D1*
X17935Y5910D1*
X18029Y5993D1*
X18138Y6052D1*
X18259Y6085D1*
X18383Y6090D1*
X18506Y6067D1*
X18620Y6016D1*
X18720Y5941D1*
X18800Y5846D1*
X18856Y5735D1*
X18886Y5614D1*
X18891Y5543D1*
X18877Y5419D1*
X18835Y5302D1*
X18754Y5183D1*
X18753Y4907D1*
X18800Y4846D1*
X18856Y4735D1*
X18886Y4614D1*
X18891Y4543D1*
X18877Y4419D1*
X18835Y4302D1*
X18754Y4183D1*
X18753Y3907D1*
X18800Y3846D1*
X18856Y3735D1*
X18886Y3614D1*
X18891Y3543D1*
X18877Y3419D1*
X18835Y3302D1*
X18754Y3183D1*
X18753Y2907D1*
X18800Y2846D1*
X18856Y2735D1*
X18886Y2614D1*
X18891Y2543D1*
X18877Y2419D1*
X18835Y2302D1*
X18754Y2183D1*
X18723Y2047D1*
X18633Y1910D1*
X17219Y497D1*
X17119Y423D1*
X16969Y379D1*
X14429Y377D1*
X2756D1*
X2633Y396D1*
X2495Y470D1*
X2052Y910D1*
X1979Y1011D1*
X1934Y1161D1*
X1932Y2181D1*
X1839Y2327D1*
X1803Y2446D1*
X1795Y2570D1*
X1815Y2694D1*
X1863Y2809D1*
X1933Y2907D1*
X1932Y3180D1*
X1839Y3327D1*
X1803Y3446D1*
X1795Y3570D1*
X1815Y3694D1*
X1863Y3809D1*
X1933Y3907D1*
X1932Y4180D1*
X1839Y4327D1*
X1803Y4446D1*
X1795Y4570D1*
X1815Y4694D1*
X1863Y4809D1*
X1933Y4907D1*
X1932Y5180D1*
X1839Y5327D1*
X1803Y5446D1*
X1795Y5570D1*
X1815Y5694D1*
X1863Y5809D1*
X1935Y5910D1*
X2029Y5993D1*
X2138Y6052D1*
X2259Y6085D1*
X2383Y6090D1*
X2506Y6067D1*
X2552Y6046D1*
Y6496D1*
X2580Y6621D1*
X2641Y6710D1*
X2748Y6818D1*
X2749Y10056D1*
X2733Y10078D1*
X1491Y8839D1*
X1474Y8735D1*
X1419Y8623D1*
X1334Y8533D1*
X1225Y8473D1*
X1103Y8448D1*
X979Y8461D1*
X864Y8510D1*
X770Y8592D1*
X705Y8698D1*
X674Y8818D1*
X681Y8943D1*
X725Y9059D1*
X801Y9157D1*
X904Y9228D1*
X1023Y9265D1*
X1058Y9264D1*
X2938Y11141D1*
X2945Y11207D1*
X2988Y11323D1*
X3065Y11421D1*
X3168Y11492D1*
X3287Y11528D1*
X3411Y11527D1*
X3539Y11483D1*
X3536Y12143D1*
Y14694D1*
X3488Y14674D1*
X3363Y14649D1*
X1491Y12776D1*
X1474Y12672D1*
X1419Y12560D1*
X1334Y12470D1*
X1225Y12410D1*
X1103Y12385D1*
X979Y12398D1*
X864Y12447D1*
X770Y12529D1*
X705Y12635D1*
X674Y12755D1*
X681Y12880D1*
X725Y12996D1*
X801Y13094D1*
X904Y13165D1*
X1023Y13202D1*
X1058Y13201D1*
X2938Y15078D1*
X2945Y15144D1*
X2988Y15260D1*
X3065Y15358D1*
X3168Y15429D1*
X3287Y15465D1*
X3411Y15464D1*
X3539Y15420D1*
X3536Y16518D1*
Y18631D1*
X3488Y18611D1*
X3363Y18586D1*
X1491Y16713D1*
X1474Y16609D1*
X1419Y16497D1*
X1334Y16407D1*
X1225Y16347D1*
X1103Y16322D1*
X979Y16335D1*
X864Y16384D1*
X770Y16466D1*
X705Y16572D1*
X674Y16692D1*
X681Y16817D1*
X725Y16933D1*
X801Y17031D1*
X904Y17102D1*
X1023Y17139D1*
X1058Y17138D1*
X2938Y19015D1*
X2945Y19081D1*
X2988Y19197D1*
X3065Y19295D1*
X3168Y19366D1*
X3287Y19402D1*
X3411Y19401D1*
X3539Y19357D1*
X3536Y20018D1*
Y21457D1*
X3564Y21581D1*
X3625Y21670D1*
X3721Y21767D1*
X3666Y21794D1*
X3045D1*
X2996Y21776D1*
X2873Y21755D1*
X2749Y21766D1*
X2631Y21808D1*
X2529Y21879D1*
X2447Y21973D1*
X2392Y22085D1*
X2381Y22134D1*
X1383Y21133D1*
X1385Y20943D1*
X1443Y20866D1*
X1486Y20749D1*
X1493Y20669D1*
X1474Y20546D1*
X1419Y20434D1*
X1334Y20344D1*
X1225Y20284D1*
X1103Y20259D1*
X979Y20272D1*
X864Y20321D1*
X770Y20403D1*
X705Y20509D1*
X674Y20629D1*
X681Y20754D1*
X725Y20870D1*
X780Y20941D1*
Y21260D1*
X808Y21384D1*
X869Y21474D1*
X2345Y22950D1*
X2453Y23019D1*
X2559Y23039D1*
X3735D1*
X3725Y23090D1*
X3732Y23214D1*
X3776Y23331D1*
X3853Y23429D1*
X3955Y23500D1*
X3989Y23510D1*
X6193Y25715D1*
X6194Y27756D1*
X6221Y27881D1*
X6282Y27970D1*
X6777Y28464D1*
X6783Y28529D1*
X6827Y28646D1*
X6904Y28744D1*
X7006Y28815D1*
X7125Y28851D1*
X7250Y28850D1*
X7368Y28812D1*
X7470Y28740D1*
X7546Y28641D1*
X7579Y28550D1*
X7664Y28517D1*
X7765Y28445D1*
X7841Y28346D1*
X7874Y28255D1*
X7959Y28222D1*
X8061Y28150D1*
X8136Y28051D1*
X8169Y27959D1*
X8254Y27926D1*
X8356Y27855D1*
X8410Y27783D1*
X8408Y28982D1*
X8071Y28979D1*
X7948Y29001D1*
X7822Y29082D1*
X7672Y29229D1*
X7557Y29278D1*
X7463Y29360D1*
X7398Y29465D1*
X7367Y29586D1*
X7374Y29710D1*
X7418Y29827D1*
X7494Y29925D1*
X7597Y29996D1*
X7716Y30032D1*
X7840Y30031D1*
X7959Y29993D1*
X8061Y29921D1*
X8136Y29822D1*
X8169Y29731D1*
X8215Y29684D1*
X8411Y29682D1*
X8408Y29823D1*
X8430Y29945D1*
X8494Y30052D1*
X8590Y30131D1*
X8712Y30170D1*
X9135Y30174D1*
X9490D1*
X9491Y30772D1*
X9394Y30717D1*
X9352Y30709D1*
X9348Y30684D1*
X9293Y30572D1*
X9208Y30482D1*
X9099Y30422D1*
X8977Y30397D1*
X8853Y30410D1*
X8738Y30459D1*
X8688Y30503D1*
X7677Y30505D1*
X7553Y30532D1*
X7463Y30593D1*
X7367Y30690D1*
X7278Y30705D1*
X7164Y30755D1*
X7069Y30836D1*
X7026Y30905D1*
X6338Y30222D1*
X6009Y29893D1*
X6011Y27067D1*
X5983Y26942D1*
X5922Y26853D1*
X5235Y26165D1*
X5215Y26058D1*
X5160Y25946D1*
X5074Y25856D1*
X4965Y25796D1*
X4843Y25771D1*
X4731Y25780D1*
Y24803D1*
X4704Y24679D1*
X4643Y24589D1*
X4446Y24393D1*
X4338Y24324D1*
X4232Y24304D1*
X3736D1*
X3643Y24198D1*
X3504Y24156D1*
X3051D1*
X2931Y24187D1*
X2840Y24270D1*
X2798Y24409D1*
Y24803D1*
X2828Y24923D1*
X2912Y25014D1*
X3051Y25056D1*
X3504D1*
X3624Y25026D1*
X3716Y24939D1*
X3704Y24957D1*
X3778Y24909D1*
X4110D1*
X4127Y25053D1*
Y26280D1*
X4155Y26404D1*
X4215Y26493D1*
X5014Y27292D1*
X5013Y28740D1*
X4866Y28665D1*
X4743Y28645D1*
X4619Y28656D1*
X4502Y28698D1*
X4466Y28722D1*
X4376Y28688D1*
X3956Y28684D1*
X2520D1*
X2397Y28717D1*
X2417Y28707D1*
X2300Y28723D1*
X2171D1*
X2245Y28662D1*
X2296Y28549D1*
X2300Y28129D1*
Y27977D1*
X2380Y28027D1*
X2499Y28064D1*
X2624Y28063D1*
X2742Y28025D1*
X2844Y27953D1*
X2920Y27854D1*
X2962Y27737D1*
X2970Y27657D1*
X2951Y27534D1*
X2896Y27423D1*
X2810Y27332D1*
X2701Y27272D1*
X2579Y27247D1*
X2455Y27260D1*
X2341Y27310D1*
X2291Y27353D1*
X689Y27355D1*
X564Y27383D1*
X475Y27444D1*
X367Y27551D1*
X365Y24936D1*
Y2374D1*
X391Y2049D1*
X464Y1743D1*
X585Y1454D1*
X749Y1187D1*
X952Y949D1*
X1191Y746D1*
X1458Y583D1*
X1747Y463D1*
X2052Y390D1*
X2379Y365D1*
X17311D1*
X17636Y391D1*
X17942Y464D1*
X18231Y585D1*
X18498Y749D1*
X18736Y952D1*
X18939Y1191D1*
X19102Y1458D1*
X19222Y1747D1*
X19295Y2052D1*
X19320Y2379D1*
Y22329D1*
X19054Y22059D1*
X19029Y22005D1*
X18955Y21905D1*
X18858Y21827D1*
X18744Y21776D1*
X18621Y21755D1*
X18497Y21766D1*
X18420Y21794D1*
X16747D1*
X16749Y21752D1*
X16730Y21629D1*
X16675Y21517D1*
X16640Y21480D1*
X16641Y19396D1*
X16797Y19401D1*
X16916Y19363D1*
X17008Y19298D1*
X17102Y19301D1*
X18255Y20459D1*
X18224Y20509D1*
X18194Y20629D1*
X18201Y20754D1*
X18244Y20870D1*
X18321Y20968D1*
X18424Y21039D1*
X18543Y21076D1*
X18667Y21075D1*
X18786Y21037D1*
X18887Y20965D1*
X18963Y20866D1*
X19005Y20749D1*
X19013Y20669D1*
X18994Y20546D1*
X18939Y20434D1*
X18904Y20398D1*
X18877Y20249D1*
X18816Y20160D1*
X18648Y19992D1*
X18786Y19954D1*
X18887Y19882D1*
X18963Y19783D1*
X19005Y19666D1*
X19013Y19587D1*
X18994Y19464D1*
X18939Y19352D1*
X18853Y19262D1*
X18744Y19201D1*
X18622Y19177D1*
X18498Y19189D1*
X18384Y19239D1*
X18290Y19320D1*
X18224Y19426D1*
X18195Y19543D1*
X17438Y18782D1*
X17330Y18714D1*
X17224Y18694D1*
X17010D1*
X16874Y18611D1*
X16752Y18586D1*
X16640Y18598D1*
X16641Y15459D1*
X16797Y15464D1*
X16916Y15426D1*
X17008Y15361D1*
X17102Y15364D1*
X18255Y16522D1*
X18224Y16572D1*
X18194Y16692D1*
X18201Y16817D1*
X18244Y16933D1*
X18321Y17031D1*
X18424Y17102D1*
X18543Y17139D1*
X18667Y17138D1*
X18786Y17100D1*
X18887Y17028D1*
X18963Y16929D1*
X19005Y16812D1*
X19013Y16732D1*
X18994Y16609D1*
X18939Y16497D1*
X18904Y16461D1*
X18877Y16312D1*
X18816Y16223D1*
X17438Y14845D1*
X17330Y14777D1*
X17224Y14757D1*
X17007Y14759D1*
X16983Y14734D1*
X16874Y14674D1*
X16752Y14649D1*
X16640Y14661D1*
X16641Y11521D1*
X16797Y11527D1*
X16916Y11489D1*
X17008Y11424D1*
X17102Y11427D1*
X18256Y12582D1*
X3757Y25537D2*
Y25394D1*
X3727Y25274D1*
X3643Y25182D1*
X3504Y25141D1*
X3051D1*
X2931Y25171D1*
X2840Y25254D1*
X2798Y25394D1*
Y25787D1*
X2828Y25907D1*
X2912Y25999D1*
X3051Y26041D1*
X3504D1*
X3624Y26010D1*
X3715Y25927D1*
X3757Y25787D1*
Y25537D1*
X1533Y23569D2*
Y23425D1*
X1502Y23305D1*
X1419Y23214D1*
X1280Y23172D1*
X827D1*
X707Y23202D1*
X615Y23286D1*
X574Y23425D1*
Y23819D1*
X604Y23939D1*
X687Y24030D1*
X827Y24072D1*
X1280D1*
X1400Y24042D1*
X1491Y23958D1*
X1533Y23819D1*
Y23569D1*
Y24553D2*
Y24409D1*
X1502Y24289D1*
X1419Y24198D1*
X1280Y24156D1*
X827D1*
X707Y24187D1*
X615Y24270D1*
X574Y24409D1*
Y24803D1*
X604Y24923D1*
X687Y25014D1*
X827Y25056D1*
X1280D1*
X1400Y25026D1*
X1491Y24943D1*
X1533Y24803D1*
Y24553D1*
Y25537D2*
Y25394D1*
X1502Y25274D1*
X1419Y25182D1*
X1280Y25141D1*
X827D1*
X707Y25171D1*
X615Y25254D1*
X574Y25394D1*
Y25787D1*
X604Y25907D1*
X687Y25999D1*
X827Y26041D1*
X1280D1*
X1400Y26010D1*
X1491Y25927D1*
X1533Y25787D1*
Y25537D1*
X2567Y25074D2*
X2514Y24961D1*
X2429Y24870D1*
X2322Y24807D1*
X2201Y24778D1*
X2076Y24786D1*
X1960Y24830D1*
X1862Y24906D1*
X1790Y25008D1*
X1751Y25126D1*
X1748Y25251D1*
X1783Y25371D1*
X1850Y25475D1*
X1946Y25555D1*
X2060Y25604D1*
X2184Y25617D1*
X2306Y25593D1*
X2416Y25534D1*
X2504Y25446D1*
X2562Y25336D1*
X2586Y25197D1*
X2567Y25074D1*
Y23893D2*
X2514Y23780D1*
X2429Y23689D1*
X2322Y23626D1*
X2201Y23597D1*
X2076Y23605D1*
X1960Y23649D1*
X1862Y23725D1*
X1790Y23827D1*
X1751Y23945D1*
X1748Y24070D1*
X1783Y24190D1*
X1850Y24294D1*
X1946Y24374D1*
X2060Y24423D1*
X2184Y24436D1*
X2306Y24412D1*
X2416Y24353D1*
X2504Y24265D1*
X2562Y24155D1*
X2586Y24016D1*
X2567Y23893D1*
X9111Y29475D2*
Y28006D1*
X10575Y28009D1*
X10574Y29475D1*
X10300Y29471D1*
X9112D1*
X366Y31950D2*
X3481Y35066D1*
X2374Y35068D1*
X2049Y35042D1*
X1743Y34969D1*
X1454Y34848D1*
X1187Y34685D1*
X949Y34481D1*
X746Y34242D1*
X583Y33975D1*
X463Y33686D1*
X390Y33381D1*
X365Y33054D1*
Y31948D1*
D27*
X16201Y30157D3*
Y29843D3*
Y29528D3*
Y29213D3*
Y28898D3*
D28*
X16240Y31280D3*
Y27776D3*
X18406Y31280D3*
Y27776D3*
G36*
X2520Y28937D2*
Y29331D1*
X4331D1*
Y28937D1*
X2520D1*
G37*
G36*
Y29724D2*
Y30118D1*
X4331D1*
Y29724D1*
X2520D1*
G37*
G36*
X709Y31181D2*
X2047D1*
Y30551D1*
X709D1*
Y31181D1*
G37*
G36*
Y28504D2*
X2047D1*
Y27874D1*
X709D1*
Y28504D1*
G37*
D31*
X7299Y33260D3*
D32*
Y34260D3*
D31*
X6299Y33260D3*
Y34260D3*
X5299Y33260D3*
Y34260D3*
D34*
X3343Y1543D3*
X4343D3*
X5343D3*
X6343D3*
X7343D3*
X8343D3*
X9343D3*
X10343D3*
X11343D3*
X12343D3*
X13343D3*
X14343D3*
X15343D3*
X16343D3*
X18343Y2543D3*
X17343D3*
X16343D3*
X15343D3*
X14343D3*
X13343D3*
X12343D3*
X11343D3*
X10343D3*
X9343D3*
X8343D3*
X7343D3*
X6343D3*
X5343D3*
X4343D3*
X3343D3*
X2343D3*
X1343D3*
Y3543D3*
X2343D3*
X3343D3*
X4343D3*
X5343D3*
X6343D3*
X7343D3*
X8343D3*
X9343D3*
X10343D3*
X11343D3*
X12343D3*
X13343D3*
X14343D3*
X15343D3*
X16343D3*
X17343D3*
X18343D3*
Y4543D3*
X17343D3*
X16343D3*
X15343D3*
X14343D3*
X13343D3*
X12343D3*
X11343D3*
X10343D3*
X9343D3*
X8343D3*
X7343D3*
X6343D3*
X5343D3*
X4343D3*
X3343D3*
X2343D3*
X1343D3*
Y5543D3*
X2343D3*
X3343D3*
X4343D3*
X5343D3*
X6343D3*
X7343D3*
X8343D3*
X9343D3*
X10343D3*
X11343D3*
X12343D3*
X13343D3*
X14343D3*
X15343D3*
X16343D3*
X17343D3*
X18343D3*
G36*
X3504Y23819D2*
Y23425D1*
X3051D1*
Y23819D1*
X3504D1*
G37*
G36*
Y24803D2*
Y24409D1*
X3051D1*
Y24803D1*
X3504D1*
G37*
G36*
Y25787D2*
Y25394D1*
X3051D1*
Y25787D1*
X3504D1*
G37*
G36*
X1280Y23819D2*
Y23425D1*
X827D1*
Y23819D1*
X1280D1*
G37*
G36*
Y24803D2*
Y24409D1*
X827D1*
Y24803D1*
X1280D1*
G37*
G36*
Y25787D2*
Y25394D1*
X827D1*
Y25787D1*
X1280D1*
G37*
M02*
