G04 DipTrace 2.4.0.2*
%INTopPaste.gbr*%
%MOIN*%
%ADD53R,0.0472X0.0551*%
%ADD55R,0.0354X0.0394*%
%ADD57R,0.0669X0.0591*%
%ADD59R,0.0394X0.0354*%
%FSLAX44Y44*%
G04*
G70*
G90*
G75*
G01*
%LNTopPaste*%
%LPD*%
D59*
X13543Y34252D3*
X14213D3*
X11772Y30610D3*
X12441D3*
X5472Y27264D3*
X6142D3*
X5472Y30413D3*
X6142D3*
D57*
X3937Y30866D3*
Y29764D3*
Y27559D3*
Y28661D3*
D59*
X7913Y26870D3*
X7244D3*
X11772D3*
X12441D3*
X13543Y32283D3*
X14213D3*
D57*
X12500Y32717D3*
Y33819D3*
D55*
X14370Y30571D3*
Y31240D3*
X13681Y30571D3*
Y31240D3*
X15059Y30571D3*
Y31240D3*
D59*
X14035Y27461D3*
X14705D3*
D53*
X2343Y22953D3*
X1594D3*
X6280D3*
X5531D3*
X10217D3*
X9469D3*
X14154D3*
X13406D3*
X18091D3*
X17343D3*
X2343Y19016D3*
X1594D3*
X6280D3*
X5531D3*
X10217D3*
X9469D3*
X14154D3*
X13406D3*
X18091D3*
X17343D3*
X2343Y15079D3*
X1594D3*
X6280D3*
X5531D3*
X10217D3*
X9469D3*
X14154D3*
X13406D3*
X18091D3*
X17343D3*
X2343Y11142D3*
X1594D3*
X6280D3*
X5531D3*
X10217D3*
X9469D3*
X14154D3*
X13406D3*
X18091D3*
X17343D3*
X2343Y7205D3*
X1594D3*
X6280D3*
X5531D3*
X10217D3*
X9469D3*
X14154D3*
X13406D3*
X18091D3*
X17343D3*
G36*
X18484Y33996D2*
X18012D1*
Y33720D1*
X18484D1*
Y33996D1*
G37*
G36*
X17028D2*
X16555D1*
Y33720D1*
X17028D1*
Y33996D1*
G37*
G36*
X18484Y33012D2*
X18012D1*
Y32736D1*
X18484D1*
Y33012D1*
G37*
G36*
X17028D2*
X16555D1*
Y32736D1*
X17028D1*
Y33012D1*
G37*
D57*
X16240Y30079D3*
Y28976D3*
G36*
X846Y29370D2*
Y29685D1*
X531D1*
Y29370D1*
X846D1*
G37*
G36*
X1437D2*
Y29685D1*
X1122D1*
Y29370D1*
X1437D1*
G37*
G36*
X846Y28189D2*
Y28504D1*
X531D1*
Y28189D1*
X846D1*
G37*
G36*
X1437D2*
Y28504D1*
X1122D1*
Y28189D1*
X1437D1*
G37*
G36*
X1713Y26339D2*
Y26024D1*
X2028D1*
Y26339D1*
X1713D1*
G37*
G36*
X1122D2*
Y26024D1*
X1437D1*
Y26339D1*
X1122D1*
G37*
G36*
X2618Y26024D2*
Y26339D1*
X2303D1*
Y26024D1*
X2618D1*
G37*
G36*
X3209D2*
Y26339D1*
X2894D1*
Y26024D1*
X3209D1*
G37*
G36*
X13740D2*
Y26339D1*
X13425D1*
Y26024D1*
X13740D1*
G37*
G36*
X14331D2*
Y26339D1*
X14016D1*
Y26024D1*
X14331D1*
G37*
G36*
X2638Y23780D2*
X3228D1*
Y24134D1*
X2638D1*
Y23780D1*
G37*
G36*
Y25079D2*
X3228D1*
Y25433D1*
X2638D1*
Y25079D1*
G37*
G36*
X709D2*
X1299D1*
Y25433D1*
X709D1*
Y25079D1*
G37*
G36*
Y23780D2*
X1299D1*
Y24134D1*
X709D1*
Y23780D1*
G37*
G36*
X6575D2*
X7165D1*
Y24134D1*
X6575D1*
Y23780D1*
G37*
G36*
Y25079D2*
X7165D1*
Y25433D1*
X6575D1*
Y25079D1*
G37*
G36*
X4646D2*
X5236D1*
Y25433D1*
X4646D1*
Y25079D1*
G37*
G36*
Y23780D2*
X5236D1*
Y24134D1*
X4646D1*
Y23780D1*
G37*
G36*
X10512D2*
X11102D1*
Y24134D1*
X10512D1*
Y23780D1*
G37*
G36*
Y25079D2*
X11102D1*
Y25433D1*
X10512D1*
Y25079D1*
G37*
G36*
X8583D2*
X9173D1*
Y25433D1*
X8583D1*
Y25079D1*
G37*
G36*
Y23780D2*
X9173D1*
Y24134D1*
X8583D1*
Y23780D1*
G37*
G36*
X14449D2*
X15039D1*
Y24134D1*
X14449D1*
Y23780D1*
G37*
G36*
Y25079D2*
X15039D1*
Y25433D1*
X14449D1*
Y25079D1*
G37*
G36*
X12520D2*
X13110D1*
Y25433D1*
X12520D1*
Y25079D1*
G37*
G36*
Y23780D2*
X13110D1*
Y24134D1*
X12520D1*
Y23780D1*
G37*
G36*
X18386D2*
X18976D1*
Y24134D1*
X18386D1*
Y23780D1*
G37*
G36*
Y25079D2*
X18976D1*
Y25433D1*
X18386D1*
Y25079D1*
G37*
G36*
X16457D2*
X17047D1*
Y25433D1*
X16457D1*
Y25079D1*
G37*
G36*
Y23780D2*
X17047D1*
Y24134D1*
X16457D1*
Y23780D1*
G37*
G36*
X2638Y19843D2*
X3228D1*
Y20197D1*
X2638D1*
Y19843D1*
G37*
G36*
Y21142D2*
X3228D1*
Y21496D1*
X2638D1*
Y21142D1*
G37*
G36*
X709D2*
X1299D1*
Y21496D1*
X709D1*
Y21142D1*
G37*
G36*
Y19843D2*
X1299D1*
Y20197D1*
X709D1*
Y19843D1*
G37*
G36*
X6575D2*
X7165D1*
Y20197D1*
X6575D1*
Y19843D1*
G37*
G36*
Y21142D2*
X7165D1*
Y21496D1*
X6575D1*
Y21142D1*
G37*
G36*
X4646D2*
X5236D1*
Y21496D1*
X4646D1*
Y21142D1*
G37*
G36*
Y19843D2*
X5236D1*
Y20197D1*
X4646D1*
Y19843D1*
G37*
G36*
X10512D2*
X11102D1*
Y20197D1*
X10512D1*
Y19843D1*
G37*
G36*
Y21142D2*
X11102D1*
Y21496D1*
X10512D1*
Y21142D1*
G37*
G36*
X8583D2*
X9173D1*
Y21496D1*
X8583D1*
Y21142D1*
G37*
G36*
Y19843D2*
X9173D1*
Y20197D1*
X8583D1*
Y19843D1*
G37*
G36*
X14449D2*
X15039D1*
Y20197D1*
X14449D1*
Y19843D1*
G37*
G36*
Y21142D2*
X15039D1*
Y21496D1*
X14449D1*
Y21142D1*
G37*
G36*
X12520D2*
X13110D1*
Y21496D1*
X12520D1*
Y21142D1*
G37*
G36*
Y19843D2*
X13110D1*
Y20197D1*
X12520D1*
Y19843D1*
G37*
G36*
X18386D2*
X18976D1*
Y20197D1*
X18386D1*
Y19843D1*
G37*
G36*
Y21142D2*
X18976D1*
Y21496D1*
X18386D1*
Y21142D1*
G37*
G36*
X16457D2*
X17047D1*
Y21496D1*
X16457D1*
Y21142D1*
G37*
G36*
Y19843D2*
X17047D1*
Y20197D1*
X16457D1*
Y19843D1*
G37*
G36*
X2638Y15906D2*
X3228D1*
Y16260D1*
X2638D1*
Y15906D1*
G37*
G36*
Y17205D2*
X3228D1*
Y17559D1*
X2638D1*
Y17205D1*
G37*
G36*
X709D2*
X1299D1*
Y17559D1*
X709D1*
Y17205D1*
G37*
G36*
Y15906D2*
X1299D1*
Y16260D1*
X709D1*
Y15906D1*
G37*
G36*
X6575D2*
X7165D1*
Y16260D1*
X6575D1*
Y15906D1*
G37*
G36*
Y17205D2*
X7165D1*
Y17559D1*
X6575D1*
Y17205D1*
G37*
G36*
X4646D2*
X5236D1*
Y17559D1*
X4646D1*
Y17205D1*
G37*
G36*
Y15906D2*
X5236D1*
Y16260D1*
X4646D1*
Y15906D1*
G37*
G36*
X10512D2*
X11102D1*
Y16260D1*
X10512D1*
Y15906D1*
G37*
G36*
Y17205D2*
X11102D1*
Y17559D1*
X10512D1*
Y17205D1*
G37*
G36*
X8583D2*
X9173D1*
Y17559D1*
X8583D1*
Y17205D1*
G37*
G36*
Y15906D2*
X9173D1*
Y16260D1*
X8583D1*
Y15906D1*
G37*
G36*
X14449D2*
X15039D1*
Y16260D1*
X14449D1*
Y15906D1*
G37*
G36*
Y17205D2*
X15039D1*
Y17559D1*
X14449D1*
Y17205D1*
G37*
G36*
X12520D2*
X13110D1*
Y17559D1*
X12520D1*
Y17205D1*
G37*
G36*
Y15906D2*
X13110D1*
Y16260D1*
X12520D1*
Y15906D1*
G37*
G36*
X18386D2*
X18976D1*
Y16260D1*
X18386D1*
Y15906D1*
G37*
G36*
Y17205D2*
X18976D1*
Y17559D1*
X18386D1*
Y17205D1*
G37*
G36*
X16457D2*
X17047D1*
Y17559D1*
X16457D1*
Y17205D1*
G37*
G36*
Y15906D2*
X17047D1*
Y16260D1*
X16457D1*
Y15906D1*
G37*
G36*
X2638Y11969D2*
X3228D1*
Y12323D1*
X2638D1*
Y11969D1*
G37*
G36*
Y13268D2*
X3228D1*
Y13622D1*
X2638D1*
Y13268D1*
G37*
G36*
X709D2*
X1299D1*
Y13622D1*
X709D1*
Y13268D1*
G37*
G36*
Y11969D2*
X1299D1*
Y12323D1*
X709D1*
Y11969D1*
G37*
G36*
X6575D2*
X7165D1*
Y12323D1*
X6575D1*
Y11969D1*
G37*
G36*
Y13268D2*
X7165D1*
Y13622D1*
X6575D1*
Y13268D1*
G37*
G36*
X4646D2*
X5236D1*
Y13622D1*
X4646D1*
Y13268D1*
G37*
G36*
Y11969D2*
X5236D1*
Y12323D1*
X4646D1*
Y11969D1*
G37*
G36*
X10512D2*
X11102D1*
Y12323D1*
X10512D1*
Y11969D1*
G37*
G36*
Y13268D2*
X11102D1*
Y13622D1*
X10512D1*
Y13268D1*
G37*
G36*
X8583D2*
X9173D1*
Y13622D1*
X8583D1*
Y13268D1*
G37*
G36*
Y11969D2*
X9173D1*
Y12323D1*
X8583D1*
Y11969D1*
G37*
G36*
X14449D2*
X15039D1*
Y12323D1*
X14449D1*
Y11969D1*
G37*
G36*
Y13268D2*
X15039D1*
Y13622D1*
X14449D1*
Y13268D1*
G37*
G36*
X12520D2*
X13110D1*
Y13622D1*
X12520D1*
Y13268D1*
G37*
G36*
Y11969D2*
X13110D1*
Y12323D1*
X12520D1*
Y11969D1*
G37*
G36*
X18386D2*
X18976D1*
Y12323D1*
X18386D1*
Y11969D1*
G37*
G36*
Y13268D2*
X18976D1*
Y13622D1*
X18386D1*
Y13268D1*
G37*
G36*
X16457D2*
X17047D1*
Y13622D1*
X16457D1*
Y13268D1*
G37*
G36*
Y11969D2*
X17047D1*
Y12323D1*
X16457D1*
Y11969D1*
G37*
G36*
X2638Y8031D2*
X3228D1*
Y8386D1*
X2638D1*
Y8031D1*
G37*
G36*
Y9331D2*
X3228D1*
Y9685D1*
X2638D1*
Y9331D1*
G37*
G36*
X709D2*
X1299D1*
Y9685D1*
X709D1*
Y9331D1*
G37*
G36*
Y8031D2*
X1299D1*
Y8386D1*
X709D1*
Y8031D1*
G37*
G36*
X6575D2*
X7165D1*
Y8386D1*
X6575D1*
Y8031D1*
G37*
G36*
Y9331D2*
X7165D1*
Y9685D1*
X6575D1*
Y9331D1*
G37*
G36*
X4646D2*
X5236D1*
Y9685D1*
X4646D1*
Y9331D1*
G37*
G36*
Y8031D2*
X5236D1*
Y8386D1*
X4646D1*
Y8031D1*
G37*
G36*
X10512D2*
X11102D1*
Y8386D1*
X10512D1*
Y8031D1*
G37*
G36*
Y9331D2*
X11102D1*
Y9685D1*
X10512D1*
Y9331D1*
G37*
G36*
X8583D2*
X9173D1*
Y9685D1*
X8583D1*
Y9331D1*
G37*
G36*
Y8031D2*
X9173D1*
Y8386D1*
X8583D1*
Y8031D1*
G37*
G36*
X14449D2*
X15039D1*
Y8386D1*
X14449D1*
Y8031D1*
G37*
G36*
Y9331D2*
X15039D1*
Y9685D1*
X14449D1*
Y9331D1*
G37*
G36*
X12520D2*
X13110D1*
Y9685D1*
X12520D1*
Y9331D1*
G37*
G36*
Y8031D2*
X13110D1*
Y8386D1*
X12520D1*
Y8031D1*
G37*
G36*
X18386D2*
X18976D1*
Y8386D1*
X18386D1*
Y8031D1*
G37*
G36*
Y9331D2*
X18976D1*
Y9685D1*
X18386D1*
Y9331D1*
G37*
G36*
X16457D2*
X17047D1*
Y9685D1*
X16457D1*
Y9331D1*
G37*
G36*
Y8031D2*
X17047D1*
Y8386D1*
X16457D1*
Y8031D1*
G37*
G36*
X17067Y26339D2*
Y26024D1*
X17382D1*
Y26339D1*
X17067D1*
G37*
G36*
X16476D2*
Y26024D1*
X16791D1*
Y26339D1*
X16476D1*
G37*
D59*
X1319Y30906D3*
X650D3*
X1319Y27559D3*
X650D3*
X2894Y30906D3*
X2224D3*
X16083Y32579D3*
X15413D3*
D55*
X4331Y32618D3*
Y31949D3*
X689Y26240D3*
Y26909D3*
D59*
X3701Y26181D3*
X4370D3*
X14823D3*
X15492D3*
X16772Y27953D3*
X16102D3*
X16772Y31102D3*
X16102D3*
D55*
X689Y23071D3*
Y22402D3*
D59*
X17874Y26181D3*
X18543D3*
G36*
X962Y33774D2*
Y33474D1*
X1562D1*
Y33774D1*
X962D1*
G37*
G36*
X3162D2*
Y33474D1*
X3762D1*
Y33774D1*
X3162D1*
G37*
G36*
X962Y32274D2*
Y31974D1*
X1562D1*
Y32274D1*
X962D1*
G37*
G36*
X3162D2*
Y31974D1*
X3762D1*
Y32274D1*
X3162D1*
G37*
G36*
X15523Y33595D2*
Y33905D1*
X15173D1*
Y33595D1*
X15523D1*
G37*
G36*
X16323Y33975D2*
Y34285D1*
X15973D1*
Y33975D1*
X16323D1*
G37*
G36*
Y33215D2*
Y33525D1*
X15973D1*
Y33215D1*
X16323D1*
G37*
G36*
X2293Y28465D2*
X2077D1*
Y27992D1*
X2293D1*
Y28465D1*
G37*
G36*
X2667D2*
X2451D1*
Y27992D1*
X2667D1*
Y28465D1*
G37*
G36*
X3041D2*
X2825D1*
Y27992D1*
X3041D1*
Y28465D1*
G37*
G36*
Y29488D2*
X2825D1*
Y29016D1*
X3041D1*
Y29488D1*
G37*
G36*
X2293D2*
X2077D1*
Y29016D1*
X2293D1*
Y29488D1*
G37*
G36*
X14154Y33002D2*
Y32785D1*
X14626D1*
Y33002D1*
X14154D1*
G37*
G36*
Y33376D2*
Y33159D1*
X14626D1*
Y33376D1*
X14154D1*
G37*
G36*
Y33750D2*
Y33533D1*
X14626D1*
Y33750D1*
X14154D1*
G37*
G36*
X13130D2*
Y33533D1*
X13602D1*
Y33750D1*
X13130D1*
G37*
G36*
Y33002D2*
Y32785D1*
X13602D1*
Y33002D1*
X13130D1*
G37*
G36*
X10768Y30236D2*
Y29921D1*
X10886D1*
Y30236D1*
X10768D1*
G37*
G36*
X10571D2*
Y29921D1*
X10689D1*
Y30236D1*
X10571D1*
G37*
G36*
X10374D2*
Y29921D1*
X10492D1*
Y30236D1*
X10374D1*
G37*
G36*
X10177D2*
Y29921D1*
X10295D1*
Y30236D1*
X10177D1*
G37*
G36*
X9980D2*
Y29921D1*
X10098D1*
Y30236D1*
X9980D1*
G37*
G36*
X9783D2*
Y29921D1*
X9902D1*
Y30236D1*
X9783D1*
G37*
G36*
X9705Y29921D2*
Y30236D1*
X9587D1*
Y29921D1*
X9705D1*
G37*
G36*
X9508D2*
Y30236D1*
X9390D1*
Y29921D1*
X9508D1*
G37*
G36*
X9311D2*
Y30236D1*
X9193D1*
Y29921D1*
X9311D1*
G37*
G36*
X9114D2*
Y30236D1*
X8996D1*
Y29921D1*
X9114D1*
G37*
G36*
X8917D2*
Y30236D1*
X8799D1*
Y29921D1*
X8917D1*
G37*
G36*
X8346Y29665D2*
X8661D1*
Y29783D1*
X8346D1*
Y29665D1*
G37*
G36*
Y29469D2*
X8661D1*
Y29587D1*
X8346D1*
Y29469D1*
G37*
G36*
Y29272D2*
X8661D1*
Y29390D1*
X8346D1*
Y29272D1*
G37*
G36*
Y29075D2*
X8661D1*
Y29193D1*
X8346D1*
Y29075D1*
G37*
G36*
Y28878D2*
X8661D1*
Y28996D1*
X8346D1*
Y28878D1*
G37*
G36*
Y28681D2*
X8661D1*
Y28799D1*
X8346D1*
Y28681D1*
G37*
G36*
X8661Y28602D2*
X8346D1*
Y28484D1*
X8661D1*
Y28602D1*
G37*
G36*
Y28406D2*
X8346D1*
Y28287D1*
X8661D1*
Y28406D1*
G37*
G36*
Y28209D2*
X8346D1*
Y28091D1*
X8661D1*
Y28209D1*
G37*
G36*
Y28012D2*
X8346D1*
Y27894D1*
X8661D1*
Y28012D1*
G37*
G36*
Y27815D2*
X8346D1*
Y27697D1*
X8661D1*
Y27815D1*
G37*
G36*
X8917Y27244D2*
Y27559D1*
X8799D1*
Y27244D1*
X8917D1*
G37*
G36*
X9114D2*
Y27559D1*
X8996D1*
Y27244D1*
X9114D1*
G37*
G36*
X9311D2*
Y27559D1*
X9193D1*
Y27244D1*
X9311D1*
G37*
G36*
X9508D2*
Y27559D1*
X9390D1*
Y27244D1*
X9508D1*
G37*
G36*
X9705D2*
Y27559D1*
X9587D1*
Y27244D1*
X9705D1*
G37*
G36*
X9902D2*
Y27559D1*
X9783D1*
Y27244D1*
X9902D1*
G37*
G36*
X9980Y27559D2*
Y27244D1*
X10098D1*
Y27559D1*
X9980D1*
G37*
G36*
X10177D2*
Y27244D1*
X10295D1*
Y27559D1*
X10177D1*
G37*
G36*
X10374D2*
Y27244D1*
X10492D1*
Y27559D1*
X10374D1*
G37*
G36*
X10571D2*
Y27244D1*
X10689D1*
Y27559D1*
X10571D1*
G37*
G36*
X10768D2*
Y27244D1*
X10886D1*
Y27559D1*
X10768D1*
G37*
G36*
X11339Y27815D2*
X11024D1*
Y27697D1*
X11339D1*
Y27815D1*
G37*
G36*
Y28012D2*
X11024D1*
Y27894D1*
X11339D1*
Y28012D1*
G37*
G36*
Y28209D2*
X11024D1*
Y28091D1*
X11339D1*
Y28209D1*
G37*
G36*
Y28406D2*
X11024D1*
Y28287D1*
X11339D1*
Y28406D1*
G37*
G36*
Y28602D2*
X11024D1*
Y28484D1*
X11339D1*
Y28602D1*
G37*
G36*
Y28799D2*
X11024D1*
Y28681D1*
X11339D1*
Y28799D1*
G37*
G36*
X11024Y28878D2*
X11339D1*
Y28996D1*
X11024D1*
Y28878D1*
G37*
G36*
Y29075D2*
X11339D1*
Y29193D1*
X11024D1*
Y29075D1*
G37*
G36*
Y29272D2*
X11339D1*
Y29390D1*
X11024D1*
Y29272D1*
G37*
G36*
Y29469D2*
X11339D1*
Y29587D1*
X11024D1*
Y29469D1*
G37*
G36*
Y29665D2*
X11339D1*
Y29783D1*
X11024D1*
Y29665D1*
G37*
G36*
X14488Y28622D2*
X14764D1*
Y28347D1*
X14488D1*
Y28622D1*
G37*
G36*
X13976D2*
X14252D1*
Y28347D1*
X13976D1*
Y28622D1*
G37*
G36*
Y29134D2*
X14252D1*
Y28858D1*
X13976D1*
Y29134D1*
G37*
G36*
X14488D2*
X14764D1*
Y28858D1*
X14488D1*
Y29134D1*
G37*
G36*
X13917Y28159D2*
Y27884D1*
X14055D1*
Y28159D1*
X13917D1*
G37*
G36*
X14173D2*
Y27884D1*
X14311D1*
Y28159D1*
X14173D1*
G37*
G36*
X14429D2*
Y27884D1*
X14567D1*
Y28159D1*
X14429D1*
G37*
G36*
X14685D2*
Y27884D1*
X14823D1*
Y28159D1*
X14685D1*
G37*
G36*
X14961Y28287D2*
X15236D1*
Y28425D1*
X14961D1*
Y28287D1*
G37*
G36*
Y28533D2*
X15236D1*
Y28671D1*
X14961D1*
Y28533D1*
G37*
G36*
Y28799D2*
X15236D1*
Y28937D1*
X14961D1*
Y28799D1*
G37*
G36*
Y29055D2*
X15236D1*
Y29193D1*
X14961D1*
Y29055D1*
G37*
G36*
X14823Y29321D2*
Y29596D1*
X14685D1*
Y29321D1*
X14823D1*
G37*
G36*
X14567D2*
Y29596D1*
X14429D1*
Y29321D1*
X14567D1*
G37*
G36*
X14311D2*
Y29596D1*
X14173D1*
Y29321D1*
X14311D1*
G37*
G36*
X14055D2*
Y29596D1*
X13917D1*
Y29321D1*
X14055D1*
G37*
G36*
X13789Y29193D2*
X13514D1*
Y29055D1*
X13789D1*
Y29193D1*
G37*
G36*
Y28937D2*
X13514D1*
Y28799D1*
X13789D1*
Y28937D1*
G37*
G36*
Y28681D2*
X13514D1*
Y28543D1*
X13789D1*
Y28681D1*
G37*
G36*
Y28425D2*
X13514D1*
Y28287D1*
X13789D1*
Y28425D1*
G37*
G36*
X5335Y30020D2*
Y29232D1*
X6280D1*
Y30020D1*
X5335D1*
G37*
G36*
X6280Y27657D2*
Y28445D1*
X5335D1*
Y27657D1*
X6280D1*
G37*
G36*
X9646Y28937D2*
X10039D1*
Y28543D1*
X9646D1*
Y28937D1*
G37*
M02*
