G04 DipTrace 2.4.0.2*
%INTopSilk.gbr*%
%MOIN*%
%ADD10C,0.0098*%
%ADD12C,0.003*%
%ADD13C,0.0197*%
%ADD21C,0.0079*%
%ADD22C,0.0039*%
%ADD29C,0.005*%
%ADD30C,0.006*%
%ADD33C,0.0*%
%ADD60C,0.0062*%
%FSLAX44Y44*%
G04*
G70*
G90*
G75*
G01*
%LNTopSilk*%
%LPD*%
X3622Y30358D2*
D10*
X4252D1*
X3622Y30433D2*
X4252D1*
X3622D2*
Y30197D1*
X4252Y30433D2*
Y30197D1*
Y28067D2*
X3622D1*
X4252Y27992D2*
X3622D1*
X4252D2*
Y28228D1*
X3622Y27992D2*
Y28228D1*
X12815Y33224D2*
X12185D1*
X12815Y33150D2*
X12185D1*
X12815D2*
Y33386D1*
X12185Y33150D2*
Y33386D1*
X2756Y23208D2*
Y22697D1*
X6693Y23208D2*
Y22697D1*
X10630Y23208D2*
Y22697D1*
X14567Y23208D2*
Y22697D1*
X18504Y23208D2*
Y22697D1*
X2756Y19271D2*
Y18760D1*
X6693Y19271D2*
Y18760D1*
X10630Y19271D2*
Y18760D1*
X14567Y19271D2*
Y18760D1*
X18504Y19271D2*
Y18760D1*
X2756Y15334D2*
Y14823D1*
X6693Y15334D2*
Y14823D1*
X10630Y15334D2*
Y14823D1*
X14567Y15334D2*
Y14823D1*
X18504Y15334D2*
Y14823D1*
X2756Y11397D2*
Y10886D1*
X6693Y11397D2*
Y10886D1*
X10630Y11397D2*
Y10886D1*
X14567Y11397D2*
Y10886D1*
X18504Y11397D2*
Y10886D1*
X2756Y7460D2*
Y6949D1*
X6693Y7460D2*
Y6949D1*
X10630Y7460D2*
Y6949D1*
X14567Y7460D2*
Y6949D1*
X18504Y7460D2*
Y6949D1*
X16820Y34158D2*
D29*
X18220D1*
Y33558D1*
X16820D1*
Y34158D1*
Y33174D2*
X18220D1*
Y32574D1*
X16820D1*
Y33174D1*
X15926Y29645D2*
D10*
Y29410D1*
X16555Y29645D2*
Y29410D1*
G36*
X1102Y29646D2*
X984D1*
Y29705D1*
X1102D1*
Y29646D1*
G37*
G36*
Y29350D2*
X984D1*
Y29409D1*
X1102D1*
Y29350D1*
G37*
G36*
Y29468D2*
X984D1*
Y29587D1*
X1102D1*
Y29468D1*
G37*
G36*
Y28465D2*
X984D1*
Y28524D1*
X1102D1*
Y28465D1*
G37*
G36*
Y28169D2*
X984D1*
Y28228D1*
X1102D1*
Y28169D1*
G37*
G36*
Y28287D2*
X984D1*
Y28405D1*
X1102D1*
Y28287D1*
G37*
G36*
X1457Y26063D2*
X1575D1*
Y26004D1*
X1457D1*
Y26063D1*
G37*
G36*
Y26358D2*
X1575D1*
Y26299D1*
X1457D1*
Y26358D1*
G37*
G36*
Y26240D2*
X1575D1*
Y26122D1*
X1457D1*
Y26240D1*
G37*
G36*
X2874Y26299D2*
X2756D1*
Y26358D1*
X2874D1*
Y26299D1*
G37*
G36*
Y26004D2*
X2756D1*
Y26063D1*
X2874D1*
Y26004D1*
G37*
G36*
Y26122D2*
X2756D1*
Y26240D1*
X2874D1*
Y26122D1*
G37*
G36*
X13996Y26299D2*
X13878D1*
Y26358D1*
X13996D1*
Y26299D1*
G37*
G36*
Y26004D2*
X13878D1*
Y26063D1*
X13996D1*
Y26004D1*
G37*
G36*
Y26122D2*
X13878D1*
Y26240D1*
X13996D1*
Y26122D1*
G37*
X1291Y24606D2*
D33*
G02X1291Y24606I677J0D01*
G01*
X2953Y23622D2*
D29*
X984D1*
Y25236D1*
Y25591D1*
X1339D1*
X2953D1*
Y23622D1*
X984Y25236D2*
X1339Y25591D1*
X1457Y25709D1*
X1299Y25866D1*
X984Y25591D1*
X5228Y24606D2*
D33*
G02X5228Y24606I677J0D01*
G01*
X6890Y23622D2*
D29*
X4921D1*
Y25236D1*
Y25591D1*
X5276D1*
X6890D1*
Y23622D1*
X4921Y25236D2*
X5276Y25591D1*
X5394Y25709D1*
X5236Y25866D1*
X4921Y25591D1*
X9165Y24606D2*
D33*
G02X9165Y24606I677J0D01*
G01*
X10827Y23622D2*
D29*
X8858D1*
Y25236D1*
Y25591D1*
X9213D1*
X10827D1*
Y23622D1*
X8858Y25236D2*
X9213Y25591D1*
X9331Y25709D1*
X9173Y25866D1*
X8858Y25591D1*
X13102Y24606D2*
D33*
G02X13102Y24606I677J0D01*
G01*
X14764Y23622D2*
D29*
X12795D1*
Y25236D1*
Y25591D1*
X13150D1*
X14764D1*
Y23622D1*
X12795Y25236D2*
X13150Y25591D1*
X13268Y25709D1*
X13110Y25866D1*
X12795Y25591D1*
X17039Y24606D2*
D33*
G02X17039Y24606I677J0D01*
G01*
X18701Y23622D2*
D29*
X16732D1*
Y25236D1*
Y25591D1*
X17087D1*
X18701D1*
Y23622D1*
X16732Y25236D2*
X17087Y25591D1*
X17205Y25709D1*
X17047Y25866D1*
X16732Y25591D1*
X1291Y20669D2*
D33*
G02X1291Y20669I677J0D01*
G01*
X2953Y19685D2*
D29*
X984D1*
Y21299D1*
Y21654D1*
X1339D1*
X2953D1*
Y19685D1*
X984Y21299D2*
X1339Y21654D1*
X1457Y21772D1*
X1299Y21929D1*
X984Y21654D1*
X5228Y20669D2*
D33*
G02X5228Y20669I677J0D01*
G01*
X6890Y19685D2*
D29*
X4921D1*
Y21299D1*
Y21654D1*
X5276D1*
X6890D1*
Y19685D1*
X4921Y21299D2*
X5276Y21654D1*
X5394Y21772D1*
X5236Y21929D1*
X4921Y21654D1*
X9165Y20669D2*
D33*
G02X9165Y20669I677J0D01*
G01*
X10827Y19685D2*
D29*
X8858D1*
Y21299D1*
Y21654D1*
X9213D1*
X10827D1*
Y19685D1*
X8858Y21299D2*
X9213Y21654D1*
X9331Y21772D1*
X9173Y21929D1*
X8858Y21654D1*
X13102Y20669D2*
D33*
G02X13102Y20669I677J0D01*
G01*
X14764Y19685D2*
D29*
X12795D1*
Y21299D1*
Y21654D1*
X13150D1*
X14764D1*
Y19685D1*
X12795Y21299D2*
X13150Y21654D1*
X13268Y21772D1*
X13110Y21929D1*
X12795Y21654D1*
X17039Y20669D2*
D33*
G02X17039Y20669I677J0D01*
G01*
X18701Y19685D2*
D29*
X16732D1*
Y21299D1*
Y21654D1*
X17087D1*
X18701D1*
Y19685D1*
X16732Y21299D2*
X17087Y21654D1*
X17205Y21772D1*
X17047Y21929D1*
X16732Y21654D1*
X1291Y16732D2*
D33*
G02X1291Y16732I677J0D01*
G01*
X2953Y15748D2*
D29*
X984D1*
Y17362D1*
Y17717D1*
X1339D1*
X2953D1*
Y15748D1*
X984Y17362D2*
X1339Y17717D1*
X1457Y17835D1*
X1299Y17992D1*
X984Y17717D1*
X5228Y16732D2*
D33*
G02X5228Y16732I677J0D01*
G01*
X6890Y15748D2*
D29*
X4921D1*
Y17362D1*
Y17717D1*
X5276D1*
X6890D1*
Y15748D1*
X4921Y17362D2*
X5276Y17717D1*
X5394Y17835D1*
X5236Y17992D1*
X4921Y17717D1*
X9165Y16732D2*
D33*
G02X9165Y16732I677J0D01*
G01*
X10827Y15748D2*
D29*
X8858D1*
Y17362D1*
Y17717D1*
X9213D1*
X10827D1*
Y15748D1*
X8858Y17362D2*
X9213Y17717D1*
X9331Y17835D1*
X9173Y17992D1*
X8858Y17717D1*
X13102Y16732D2*
D33*
G02X13102Y16732I677J0D01*
G01*
X14764Y15748D2*
D29*
X12795D1*
Y17362D1*
Y17717D1*
X13150D1*
X14764D1*
Y15748D1*
X12795Y17362D2*
X13150Y17717D1*
X13268Y17835D1*
X13110Y17992D1*
X12795Y17717D1*
X17039Y16732D2*
D33*
G02X17039Y16732I677J0D01*
G01*
X18701Y15748D2*
D29*
X16732D1*
Y17362D1*
Y17717D1*
X17087D1*
X18701D1*
Y15748D1*
X16732Y17362D2*
X17087Y17717D1*
X17205Y17835D1*
X17047Y17992D1*
X16732Y17717D1*
X1291Y12795D2*
D33*
G02X1291Y12795I677J0D01*
G01*
X2953Y11811D2*
D29*
X984D1*
Y13425D1*
Y13780D1*
X1339D1*
X2953D1*
Y11811D1*
X984Y13425D2*
X1339Y13780D1*
X1457Y13898D1*
X1299Y14055D1*
X984Y13780D1*
X5228Y12795D2*
D33*
G02X5228Y12795I677J0D01*
G01*
X6890Y11811D2*
D29*
X4921D1*
Y13425D1*
Y13780D1*
X5276D1*
X6890D1*
Y11811D1*
X4921Y13425D2*
X5276Y13780D1*
X5394Y13898D1*
X5236Y14055D1*
X4921Y13780D1*
X9165Y12795D2*
D33*
G02X9165Y12795I677J0D01*
G01*
X10827Y11811D2*
D29*
X8858D1*
Y13425D1*
Y13780D1*
X9213D1*
X10827D1*
Y11811D1*
X8858Y13425D2*
X9213Y13780D1*
X9331Y13898D1*
X9173Y14055D1*
X8858Y13780D1*
X13102Y12795D2*
D33*
G02X13102Y12795I677J0D01*
G01*
X14764Y11811D2*
D29*
X12795D1*
Y13425D1*
Y13780D1*
X13150D1*
X14764D1*
Y11811D1*
X12795Y13425D2*
X13150Y13780D1*
X13268Y13898D1*
X13110Y14055D1*
X12795Y13780D1*
X17039Y12795D2*
D33*
G02X17039Y12795I677J0D01*
G01*
X18701Y11811D2*
D29*
X16732D1*
Y13425D1*
Y13780D1*
X17087D1*
X18701D1*
Y11811D1*
X16732Y13425D2*
X17087Y13780D1*
X17205Y13898D1*
X17047Y14055D1*
X16732Y13780D1*
X1291Y8858D2*
D33*
G02X1291Y8858I677J0D01*
G01*
X2953Y7874D2*
D29*
X984D1*
Y9488D1*
Y9843D1*
X1339D1*
X2953D1*
Y7874D1*
X984Y9488D2*
X1339Y9843D1*
X1457Y9961D1*
X1299Y10118D1*
X984Y9843D1*
X5228Y8858D2*
D33*
G02X5228Y8858I677J0D01*
G01*
X6890Y7874D2*
D29*
X4921D1*
Y9488D1*
Y9843D1*
X5276D1*
X6890D1*
Y7874D1*
X4921Y9488D2*
X5276Y9843D1*
X5394Y9961D1*
X5236Y10118D1*
X4921Y9843D1*
X9165Y8858D2*
D33*
G02X9165Y8858I677J0D01*
G01*
X10827Y7874D2*
D29*
X8858D1*
Y9488D1*
Y9843D1*
X9213D1*
X10827D1*
Y7874D1*
X8858Y9488D2*
X9213Y9843D1*
X9331Y9961D1*
X9173Y10118D1*
X8858Y9843D1*
X13102Y8858D2*
D33*
G02X13102Y8858I677J0D01*
G01*
X14764Y7874D2*
D29*
X12795D1*
Y9488D1*
Y9843D1*
X13150D1*
X14764D1*
Y7874D1*
X12795Y9488D2*
X13150Y9843D1*
X13268Y9961D1*
X13110Y10118D1*
X12795Y9843D1*
X17039Y8858D2*
D33*
G02X17039Y8858I677J0D01*
G01*
X18701Y7874D2*
D29*
X16732D1*
Y9488D1*
Y9843D1*
X17087D1*
X18701D1*
Y7874D1*
X16732Y9488D2*
X17087Y9843D1*
X17205Y9961D1*
X17047Y10118D1*
X16732Y9843D1*
G36*
X16811Y26063D2*
X16929D1*
Y26004D1*
X16811D1*
Y26063D1*
G37*
G36*
Y26358D2*
X16929D1*
Y26299D1*
X16811D1*
Y26358D1*
G37*
G36*
Y26240D2*
X16929D1*
Y26122D1*
X16811D1*
Y26240D1*
G37*
X2842Y6043D2*
D10*
X16843D1*
Y2043D1*
X2842D1*
Y6043D1*
Y2043D2*
X16843D1*
Y1043D1*
X2842D1*
Y2043D1*
X843Y6043D2*
X2842D1*
Y2043D1*
X843D1*
Y6043D1*
X16843D2*
X18843D1*
Y2043D1*
X16843D1*
Y6043D1*
X1862Y32874D2*
D33*
G02X1862Y32874I500J0D01*
G01*
X1362Y32386D2*
D21*
Y33374D1*
X1756Y33874D2*
X2968D1*
X3362Y33362D2*
Y32386D1*
X2968Y31874D2*
X1756D1*
X15898Y34320D2*
D30*
Y33180D1*
X15598D1*
Y34320D1*
X15898D1*
X3119Y29059D2*
Y28421D1*
X1999D2*
Y29059D1*
X2354D2*
X2765D1*
X2391Y28421D2*
X2354D1*
X2765D2*
X2728D1*
X2036D2*
X1999D1*
X3119D2*
X3082D1*
Y29059D2*
X3119D1*
X1999D2*
X2036D1*
X13709Y33828D2*
D21*
X14047D1*
Y32708D2*
X13709D1*
X13559Y33162D2*
Y33373D1*
X8465Y28091D2*
Y27362D1*
X9193D2*
X8465D1*
Y29390D2*
Y30118D1*
X8622D1*
X10492Y27362D2*
X11220D1*
Y28091D1*
Y29921D2*
X11024Y30118D1*
X13661Y28071D2*
D33*
G02X13661Y28071I39J0D01*
G01*
X15158Y27953D2*
D29*
Y29528D1*
X13583D1*
Y27953D1*
X15158D1*
X6286Y29823D2*
G02X6437Y29711I19J-131D01*
G01*
Y27966D1*
G02X6286Y27854I-131J20D01*
G01*
X5265D1*
G02X5177Y27942I0J88D01*
G01*
Y29698D1*
G02X5302Y29823I125J0D01*
G01*
X6286D1*
X5295Y28287D2*
Y29390D1*
G02X5571Y29626I256J-20D01*
G01*
X6122D1*
G02X6319Y29390I-19J-216D01*
G01*
Y28327D1*
G02X6083Y28051I-256J-20D01*
G01*
X5532D1*
G02X5295Y28287I0J236D01*
G01*
X8858Y33661D2*
D21*
G02X8858Y33661I984J0D01*
G01*
D13*
X13681Y28051D3*
X12740Y28453D2*
D22*
Y27717D1*
Y28453D2*
X12543Y28256D1*
X12740Y28453D2*
X12937Y28256D1*
X13630Y27567D2*
X13433Y27764D1*
X12886Y27567D2*
X13626D1*
X13630D2*
X13433Y27370D1*
X12591Y27565D2*
G02X12591Y27565I148J0D01*
G01*
X12843Y27669D2*
X12638Y27465D1*
Y27669D2*
X12843Y27465D1*
X727Y30195D2*
D60*
X708Y30233D1*
X669Y30271D1*
X631Y30290D1*
X555D1*
X516Y30271D1*
X478Y30233D1*
X459Y30195D1*
X440Y30137D1*
Y30041D1*
X459Y29984D1*
X478Y29946D1*
X516Y29908D1*
X555Y29888D1*
X631D1*
X669Y29908D1*
X708Y29946D1*
X727Y29984D1*
X850Y30290D2*
Y29888D1*
X1118Y30290D2*
Y29888D1*
X850Y30099D2*
X1118D1*
X1529Y30195D2*
X1510Y30233D1*
X1471Y30271D1*
X1433Y30290D1*
X1357D1*
X1318Y30271D1*
X1280Y30233D1*
X1261Y30195D1*
X1242Y30137D1*
Y30041D1*
X1261Y29984D1*
X1280Y29946D1*
X1318Y29908D1*
X1357Y29888D1*
X1433D1*
X1471Y29908D1*
X1510Y29946D1*
X1529Y29984D1*
Y30041D1*
X1433D1*
X352Y29109D2*
Y28707D1*
X486D1*
X544Y28727D1*
X582Y28765D1*
X601Y28803D1*
X620Y28860D1*
Y28956D1*
X601Y29014D1*
X582Y29052D1*
X544Y29090D1*
X486Y29109D1*
X352D1*
X859D2*
X820Y29090D1*
X782Y29052D1*
X763Y29014D1*
X744Y28956D1*
Y28860D1*
X763Y28803D1*
X782Y28765D1*
X820Y28727D1*
X859Y28707D1*
X935D1*
X973Y28727D1*
X1012Y28765D1*
X1031Y28803D1*
X1050Y28860D1*
Y28956D1*
X1031Y29014D1*
X1012Y29052D1*
X973Y29090D1*
X935Y29109D1*
X859D1*
X1441D2*
Y28707D1*
X1173Y29109D1*
Y28707D1*
X1813Y29109D2*
X1565D1*
Y28707D1*
X1813D1*
X1565Y28918D2*
X1718D1*
X1379Y26944D2*
Y26542D1*
X1245Y26944D2*
X1513D1*
X1637D2*
X1905Y26542D1*
Y26944D2*
X1637Y26542D1*
X2426Y26753D2*
X2598D1*
X2656Y26772D1*
X2675Y26791D1*
X2694Y26829D1*
Y26867D1*
X2675Y26905D1*
X2656Y26925D1*
X2598Y26944D1*
X2426D1*
Y26542D1*
X2560Y26753D2*
X2694Y26542D1*
X2818Y26944D2*
X3086Y26542D1*
Y26944D2*
X2818Y26542D1*
X13439Y26944D2*
Y26542D1*
X13572D1*
X13630Y26561D1*
X13668Y26600D1*
X13687Y26638D1*
X13706Y26695D1*
Y26791D1*
X13687Y26848D1*
X13668Y26886D1*
X13630Y26925D1*
X13572Y26944D1*
X13439D1*
X13830Y26867D2*
X13868Y26886D1*
X13926Y26944D1*
Y26542D1*
X14088Y26944D2*
X14298D1*
X14183Y26791D1*
X14241D1*
X14279Y26772D1*
X14298Y26753D1*
X14317Y26695D1*
Y26657D1*
X14298Y26600D1*
X14260Y26561D1*
X14202Y26542D1*
X14145D1*
X14088Y26561D1*
X14069Y26581D1*
X14049Y26619D1*
X16346Y26734D2*
X16519D1*
X16576Y26753D1*
X16595Y26772D1*
X16614Y26810D1*
Y26868D1*
X16595Y26906D1*
X16576Y26925D1*
X16519Y26944D1*
X16346D1*
Y26542D1*
X16738Y26944D2*
X16834Y26542D1*
X16929Y26944D1*
X17025Y26542D1*
X17121Y26944D1*
X17244Y26753D2*
X17416D1*
X17474Y26772D1*
X17493Y26791D1*
X17512Y26829D1*
Y26868D1*
X17493Y26906D1*
X17474Y26925D1*
X17416Y26944D1*
X17244D1*
Y26542D1*
X17378Y26753D2*
X17512Y26542D1*
X1465Y34268D2*
X1637D1*
X1694Y34288D1*
X1714Y34307D1*
X1733Y34345D1*
Y34383D1*
X1714Y34421D1*
X1694Y34441D1*
X1637Y34460D1*
X1465D1*
Y34058D1*
X1599Y34268D2*
X1733Y34058D1*
X2105Y34460D2*
X1856D1*
Y34058D1*
X2105D1*
X1856Y34268D2*
X2009D1*
X2496Y34402D2*
X2458Y34441D1*
X2401Y34460D1*
X2324D1*
X2267Y34441D1*
X2228Y34402D1*
Y34364D1*
X2248Y34326D1*
X2267Y34307D1*
X2305Y34288D1*
X2420Y34249D1*
X2458Y34230D1*
X2477Y34211D1*
X2496Y34173D1*
Y34115D1*
X2458Y34077D1*
X2401Y34058D1*
X2324D1*
X2267Y34077D1*
X2228Y34115D1*
X2868Y34460D2*
X2620D1*
Y34058D1*
X2868D1*
X2620Y34268D2*
X2773D1*
X3126Y34460D2*
Y34058D1*
X2992Y34460D2*
X3260D1*
X3005Y827D2*
Y425D1*
X3139D1*
X3196Y445D1*
X3235Y483D1*
X3254Y521D1*
X3273Y578D1*
Y674D1*
X3254Y732D1*
X3235Y770D1*
X3196Y808D1*
X3139Y827D1*
X3005D1*
X3511D2*
X3454Y808D1*
X3415Y750D1*
X3396Y655D1*
Y597D1*
X3415Y502D1*
X3454Y444D1*
X3511Y425D1*
X3549D1*
X3607Y444D1*
X3645Y502D1*
X3664Y597D1*
Y655D1*
X3645Y750D1*
X3607Y808D1*
X3549Y827D1*
X3511D1*
X3645Y750D2*
X3415Y502D1*
X4067Y827D2*
Y425D1*
X4201D1*
X4259Y445D1*
X4297Y483D1*
X4316Y521D1*
X4335Y578D1*
Y674D1*
X4316Y732D1*
X4297Y770D1*
X4259Y808D1*
X4201Y827D1*
X4067D1*
X4459Y750D2*
X4497Y770D1*
X4555Y827D1*
Y425D1*
X5005Y827D2*
Y425D1*
X5139D1*
X5196Y445D1*
X5235Y483D1*
X5254Y521D1*
X5273Y578D1*
Y674D1*
X5254Y732D1*
X5235Y770D1*
X5196Y808D1*
X5139Y827D1*
X5005D1*
X5416Y731D2*
Y750D1*
X5435Y789D1*
X5454Y808D1*
X5492Y827D1*
X5569D1*
X5607Y808D1*
X5626Y789D1*
X5645Y750D1*
Y712D1*
X5626Y674D1*
X5588Y617D1*
X5396Y425D1*
X5664D1*
X6028Y827D2*
Y425D1*
X6162D1*
X6220Y445D1*
X6258Y483D1*
X6277Y521D1*
X6296Y578D1*
Y674D1*
X6277Y732D1*
X6258Y770D1*
X6220Y808D1*
X6162Y827D1*
X6028D1*
X6458D2*
X6668D1*
X6554Y674D1*
X6611D1*
X6649Y655D1*
X6668Y636D1*
X6688Y578D1*
Y540D1*
X6668Y483D1*
X6630Y444D1*
X6573Y425D1*
X6515D1*
X6458Y444D1*
X6439Y464D1*
X6420Y502D1*
X6993Y827D2*
Y425D1*
X7127D1*
X7184Y445D1*
X7223Y483D1*
X7242Y521D1*
X7261Y578D1*
Y674D1*
X7242Y732D1*
X7223Y770D1*
X7184Y808D1*
X7127Y827D1*
X6993D1*
X7576Y425D2*
Y827D1*
X7385Y559D1*
X7671D1*
X8036Y827D2*
Y425D1*
X8170D1*
X8228Y445D1*
X8266Y483D1*
X8285Y521D1*
X8304Y578D1*
Y674D1*
X8285Y732D1*
X8266Y770D1*
X8228Y808D1*
X8170Y827D1*
X8036D1*
X8657D2*
X8466D1*
X8447Y655D1*
X8466Y674D1*
X8524Y693D1*
X8581D1*
X8638Y674D1*
X8677Y636D1*
X8696Y578D1*
Y540D1*
X8677Y483D1*
X8638Y444D1*
X8581Y425D1*
X8524D1*
X8466Y444D1*
X8447Y464D1*
X8428Y502D1*
X9021Y827D2*
Y425D1*
X9155D1*
X9212Y445D1*
X9251Y483D1*
X9270Y521D1*
X9289Y578D1*
Y674D1*
X9270Y732D1*
X9251Y770D1*
X9212Y808D1*
X9155Y827D1*
X9021D1*
X9642Y770D2*
X9623Y808D1*
X9565Y827D1*
X9527D1*
X9470Y808D1*
X9431Y750D1*
X9412Y655D1*
Y559D1*
X9431Y483D1*
X9470Y444D1*
X9527Y425D1*
X9546D1*
X9603Y444D1*
X9642Y483D1*
X9661Y540D1*
Y559D1*
X9642Y617D1*
X9603Y655D1*
X9546Y674D1*
X9527D1*
X9470Y655D1*
X9431Y617D1*
X9412Y559D1*
X10005Y827D2*
Y425D1*
X10139D1*
X10196Y445D1*
X10235Y483D1*
X10254Y521D1*
X10273Y578D1*
Y674D1*
X10254Y732D1*
X10235Y770D1*
X10196Y808D1*
X10139Y827D1*
X10005D1*
X10473Y425D2*
X10664Y827D1*
X10396D1*
X11028D2*
Y425D1*
X11162D1*
X11220Y445D1*
X11258Y483D1*
X11277Y521D1*
X11296Y578D1*
Y674D1*
X11277Y732D1*
X11258Y770D1*
X11220Y808D1*
X11162Y827D1*
X11028D1*
X11515D2*
X11458Y808D1*
X11439Y770D1*
Y731D1*
X11458Y693D1*
X11496Y674D1*
X11573Y655D1*
X11630Y636D1*
X11668Y597D1*
X11687Y559D1*
Y502D1*
X11668Y464D1*
X11649Y444D1*
X11592Y425D1*
X11515D1*
X11458Y444D1*
X11439Y464D1*
X11420Y502D1*
Y559D1*
X11439Y597D1*
X11477Y636D1*
X11534Y655D1*
X11611Y674D1*
X11649Y693D1*
X11668Y731D1*
Y770D1*
X11649Y808D1*
X11592Y827D1*
X11515D1*
X12013D2*
Y425D1*
X12147D1*
X12204Y445D1*
X12243Y483D1*
X12262Y521D1*
X12281Y578D1*
Y674D1*
X12262Y732D1*
X12243Y770D1*
X12204Y808D1*
X12147Y827D1*
X12013D1*
X12653Y693D2*
X12634Y636D1*
X12596Y597D1*
X12538Y578D1*
X12519D1*
X12462Y597D1*
X12424Y636D1*
X12404Y693D1*
Y712D1*
X12424Y770D1*
X12462Y808D1*
X12519Y827D1*
X12538D1*
X12596Y808D1*
X12634Y770D1*
X12653Y693D1*
Y597D1*
X12634Y502D1*
X12596Y444D1*
X12538Y425D1*
X12500D1*
X12443Y444D1*
X12424Y483D1*
X12938Y827D2*
Y425D1*
X13072D1*
X13129Y445D1*
X13168Y483D1*
X13187Y521D1*
X13206Y578D1*
Y674D1*
X13187Y732D1*
X13168Y770D1*
X13129Y808D1*
X13072Y827D1*
X12938D1*
X13329Y750D2*
X13368Y770D1*
X13425Y827D1*
Y425D1*
X13664Y827D2*
X13606Y808D1*
X13568Y750D1*
X13549Y655D1*
Y597D1*
X13568Y502D1*
X13606Y444D1*
X13664Y425D1*
X13702D1*
X13759Y444D1*
X13797Y502D1*
X13817Y597D1*
Y655D1*
X13797Y750D1*
X13759Y808D1*
X13702Y827D1*
X13664D1*
X13797Y750D2*
X13568Y502D1*
X14327Y425D2*
X14174Y827D1*
X14021Y425D1*
X14078Y559D2*
X14270D1*
X14565Y827D2*
X14508Y808D1*
X14470Y750D1*
X14451Y655D1*
Y597D1*
X14470Y502D1*
X14508Y444D1*
X14565Y425D1*
X14604D1*
X14661Y444D1*
X14699Y502D1*
X14718Y597D1*
Y655D1*
X14699Y750D1*
X14661Y808D1*
X14604Y827D1*
X14565D1*
X14699Y750D2*
X14470Y502D1*
X15351Y425D2*
X15197Y827D1*
X15044Y425D1*
X15102Y559D2*
X15293D1*
X15474Y750D2*
X15513Y770D1*
X15570Y827D1*
Y425D1*
X16296D2*
X16142Y827D1*
X15989Y425D1*
X16047Y559D2*
X16238D1*
X16438Y731D2*
Y750D1*
X16458Y789D1*
X16477Y808D1*
X16515Y827D1*
X16591D1*
X16630Y808D1*
X16649Y789D1*
X16668Y750D1*
Y712D1*
X16649Y674D1*
X16610Y617D1*
X16419Y425D1*
X16687D1*
X18120Y766D2*
Y976D1*
X18273Y861D1*
Y919D1*
X18292Y957D1*
X18311Y976D1*
X18368Y995D1*
X18406D1*
X18464Y976D1*
X18502Y938D1*
X18521Y880D1*
Y823D1*
X18502Y766D1*
X18483Y747D1*
X18445Y727D1*
X18120Y1119D2*
X18521Y1272D1*
X18120Y1425D1*
Y1587D2*
Y1797D1*
X18273Y1682D1*
Y1740D1*
X18292Y1778D1*
X18311Y1797D1*
X18368Y1816D1*
X18406D1*
X18464Y1797D1*
X18502Y1759D1*
X18521Y1701D1*
Y1644D1*
X18502Y1587D1*
X18483Y1568D1*
X18445Y1548D1*
X17221Y1024D2*
X17183Y1005D1*
X17145Y966D1*
X17126Y928D1*
Y852D1*
X17145Y813D1*
X17183Y775D1*
X17221Y756D1*
X17279Y737D1*
X17375D1*
X17432Y756D1*
X17470Y775D1*
X17508Y813D1*
X17528Y852D1*
Y928D1*
X17508Y966D1*
X17470Y1005D1*
X17432Y1024D1*
X17375D1*
Y928D1*
X17126Y1415D2*
X17528D1*
X17126Y1147D1*
X17528D1*
X17126Y1539D2*
X17528D1*
Y1673D1*
X17508Y1730D1*
X17470Y1768D1*
X17432Y1788D1*
X17375Y1807D1*
X17279D1*
X17221Y1788D1*
X17183Y1768D1*
X17145Y1730D1*
X17126Y1673D1*
Y1539D1*
X2116Y766D2*
Y976D1*
X2269Y861D1*
Y919D1*
X2288Y957D1*
X2307Y976D1*
X2365Y995D1*
X2403D1*
X2460Y976D1*
X2498Y938D1*
X2517Y880D1*
Y823D1*
X2498Y766D1*
X2479Y747D1*
X2441Y727D1*
X2116Y1119D2*
X2517Y1272D1*
X2116Y1425D1*
Y1587D2*
Y1797D1*
X2269Y1682D1*
Y1740D1*
X2288Y1778D1*
X2307Y1797D1*
X2365Y1816D1*
X2403D1*
X2460Y1797D1*
X2498Y1759D1*
X2517Y1701D1*
Y1644D1*
X2498Y1587D1*
X2479Y1568D1*
X2441Y1548D1*
X1217Y1024D2*
X1179Y1005D1*
X1141Y966D1*
X1122Y928D1*
Y852D1*
X1141Y813D1*
X1179Y775D1*
X1217Y756D1*
X1275Y737D1*
X1371D1*
X1428Y756D1*
X1466Y775D1*
X1504Y813D1*
X1524Y852D1*
Y928D1*
X1504Y966D1*
X1466Y1005D1*
X1428Y1024D1*
X1371D1*
Y928D1*
X1122Y1415D2*
X1524D1*
X1122Y1147D1*
X1524D1*
X1122Y1539D2*
X1524D1*
Y1673D1*
X1504Y1730D1*
X1466Y1768D1*
X1428Y1788D1*
X1371Y1807D1*
X1275D1*
X1217Y1788D1*
X1179Y1768D1*
X1141Y1730D1*
X1122Y1673D1*
Y1539D1*
X12489Y28127D2*
D12*
X12566Y28032D1*
Y27927D1*
X12642Y28127D2*
X12566Y28032D1*
X13151Y27852D2*
X13285Y27651D1*
Y27852D2*
X13151Y27651D1*
X12434Y27395D2*
X12568D1*
X12434Y27194D1*
X12568D1*
M02*
